<svg xmlns="http://www.w3.org/2000/svg" xmlns:xlink="http://www.w3.org/1999/xlink" width="370" zoomAndPan="magnify" viewBox="0 0 277.5 392.557" height="523.409" preserveAspectRatio="xMidYMid meet" version="1.0"><defs><g/><clipPath id="id1"><path d="M0.087 177.19L277.325 177.19L277.325 392.404L0.087 392.404ZM0.087 177.19" clip-rule="nonzero"/></clipPath><clipPath id="id2"><path d="M4.896 167.631L276.742 167.631L276.742 392.404L4.896 392.404ZM4.896 167.631" clip-rule="nonzero"/></clipPath><clipPath id="id3"><path d="M34.272 176.957L273.478 176.957L273.478 392.404L34.272 392.404ZM34.272 176.957" clip-rule="nonzero"/></clipPath><clipPath id="id4"><path d="M4.43 176.723L275.727 176.723L275.727 392.404L4.43 392.404ZM4.43 176.723" clip-rule="nonzero"/></clipPath></defs><g clip-path="url(#id1)"><path fill="rgb(70.588684%, 77.648926%, 65.098572%)" d="M244.726 260.777C242.583 259.713 240.066 259.713 237.923 260.779L230.379 264.533C228.663 265.22 227.45 266.896 227.45 268.86L227.45 278.921C227.45 280.845 228.614 282.497 230.276 283.207L237.923 287.003C240.066 288.068 242.583 288.068 244.726 287.002L252.269 283.248C253.986 282.561 255.199 280.884 255.199 278.921L255.199 268.86C255.199 266.936 254.034 265.286 252.372 264.573ZM233.395 310.819C180.469 296.449 211.727 232.708 142.916 244.462C95.248 252.606 104.858 308.664 73.979 309.382C53.054 309.869 43.78 344.512 33.048 361.833C22.027 379.614 1.594 372.629 0.087 412.497L276.694 412.497C276.694 412.497 286.32 325.188 233.395 310.819ZM217.464 192.948C216.913 191.666 217.437 190.179 218.665 189.523C219.616 189.018 220.794 189.295 221.42 190.172L225.939 196.511L224.945 183.028C224.856 181.797 225.748 180.711 226.974 180.567C228.062 180.437 229.093 181.088 229.439 182.129L233.173 193.37L232.932 180.044C232.908 178.631 233.956 177.428 235.359 177.266C236.761 177.104 238.057 178.028 238.359 179.405L241.215 192.417L240.737 180.867C240.7 179.974 241.415 179.232 242.307 179.237L242.344 179.237C243.142 179.239 243.813 179.813 243.932 180.597C244.539 184.648 246.331 196.359 246.331 196.359L247.271 200.649L251.022 194.251C251.738 193.029 253.418 192.823 254.41 193.832C254.949 194.38 255.153 195.179 254.944 195.92L253.083 202.561L248.474 212.445L248.372 212.659C247.789 213.902 247.655 215.311 247.995 216.642L255.78 247.222L234.252 251.952L229.158 215.628C228.998 214.492 228.713 213.38 228.303 212.309L226.941 208.75C226.13 206.624 225.09 204.59 223.842 202.685L217.464 192.948" fill-opacity="1" fill-rule="nonzero"/></g><path fill="rgb(55.688477%, 35.688782%, 42.749023%)" d="M118.767 245.276C118.767 245.276 112.543 243.955 111.585 243.955C110.627 243.955 105.044 246.075 105.044 248.311C105.044 250.546 106 253.1 106.638 253.738C107.276 254.377 109.831 254.219 110.787 254.858C111.745 255.496 114.158 255.487 114.158 255.487L115.949 250.864C115.949 250.864 118.447 253.1 121.002 253.1C123.554 253.1 124.831 251.024 124.831 251.024L128.427 251.38L126.854 244.21ZM82.523 221.965L78.073 225.537C77.86 225.708 77.846 226.026 78.036 226.219C78.648 226.829 79.573 227.001 80.36 226.643L83.419 225.263L83.571 225.47L80.446 228.866C80.196 229.14 80.288 229.574 80.626 229.728C80.988 229.893 81.43 230.062 81.784 230.09C82.957 230.189 84.455 228.995 85.45 228.045L85.762 228.469L83.266 230.02C82.906 230.244 82.827 230.599 83.104 230.725C83.397 230.86 83.774 230.999 84.117 231.022C84.696 231.062 85.492 230.827 86.316 230.485C86.19 231.724 85.718 233.607 84.078 234.599C81.505 236.157 80.966 237.353 81.626 238.072C82.284 238.79 84.797 236.576 87.967 236.875C91.138 237.172 93.741 235.797 93.741 235.797L93.741 228.563L89.584 224.48ZM176.53 192.478C175.673 196.191 169.904 196.454 168.695 196.47L167.951 196.47L167.655 199.822L155.066 199.822L156.422 187.958C154.25 187.056 152.934 183.925 154.906 182.261C155.761 181.538 156.514 181.451 157.143 181.641L157.7 176.762C160.573 167.261 171.024 170.684 173.818 173.718C174.91 174.907 177.487 188.327 176.53 192.478" fill-opacity="1" fill-rule="nonzero"/><g clip-path="url(#id2)"><path fill="rgb(12.548828%, 39.99939%, 28.239441%)" d="M178.136 174.818L175.651 174.436L173.993 168.927C173.794 168.264 173.184 167.809 172.491 167.809L160.607 167.809C159.849 167.809 159.197 168.356 159.064 169.102L157.7 176.762L179.8 176.762C179.8 175.792 179.094 174.967 178.136 174.818ZM57.546 176.762L76.648 176.762L75.042 171.432L59.006 171.432ZM94.325 390.782L67.383 390.782L67.383 390.922L59.563 411.22L53.658 411.22L54.245 390.782L27.487 390.782L27.487 390.922L19.67 411.22L13.764 411.22L14.376 389.961L13.726 379.706L12.032 379.706C12.56 379.24 13.1 378.804 13.643 378.376L5.148 243.955L10.045 243.955C9.216 243.955 8.457 243.494 8.075 242.759L5.449 237.703C4.606 236.082 4.742 234.125 5.801 232.635L40.454 183.899C41.054 183.055 41.853 182.37 42.78 181.907L51.723 177.431C52.602 176.99 53.572 176.762 54.554 176.762L54.672 176.762L56.309 170.781C56.629 169.609 57.692 168.797 58.907 168.797L75.4 168.797C76.547 168.797 77.569 169.523 77.946 170.607L80.082 176.762L89.303 176.762C91.875 176.762 94.193 178.322 95.163 180.707L97.059 185.362C97.792 187.164 97.656 189.202 96.693 190.892L71.446 234.401C69.299 238.103 65.81 240.837 61.705 242.037L55.133 243.955L103.605 243.955L95.542 371.53L275.617 371.53C276.023 374.312 276.341 377.046 276.59 379.706L95.026 379.706ZM93.741 228.563L123.903 226.647L141.53 204.342C141.824 203.912 142.143 203.501 142.497 203.12L142.516 203.098L142.516 203.1C144.402 201.08 147.084 199.822 150.042 199.822L175.34 199.822C180.048 199.822 184.158 203.019 185.32 207.585L185.346 207.688C186.951 213.998 186.558 220.648 184.228 226.726L177.916 248.426C181.519 275.456 183.173 348.784 183.458 362.708C183.485 363.972 182.466 365.007 181.203 365.007L161.889 365.007C160.685 365.007 159.691 364.061 159.634 362.859L153.115 296.342L140.301 361.547C139.816 364.002 137.201 365.395 134.896 364.421L115.399 358.848L133.422 257.302L129.727 257.302L126.854 244.21L136.212 241.577L137.001 237.131L129.168 241.496L93.741 241.496L93.741 228.563" fill-opacity="1" fill-rule="nonzero"/></g><g clip-path="url(#id3)"><path fill="rgb(98.039246%, 70.199585%, 15.689087%)" d="M219.012 199.366C219.82 201.494 220.4 203.702 220.739 205.955L221.303 209.721C221.474 210.856 221.515 212.004 221.428 213.147L218.615 249.721L240.655 249.721L239.609 218.182C239.563 216.809 239.996 215.462 240.831 214.373L240.976 214.185L247.596 205.52L250.841 199.436C251.203 198.756 251.175 197.933 250.765 197.279C250.013 196.081 248.329 195.923 247.366 196.963L242.331 202.407L242.331 198.016C242.331 198.016 243.096 186.19 243.368 182.105C243.421 181.314 242.89 180.608 242.109 180.435L242.074 180.426C241.203 180.231 240.346 180.803 240.191 181.681L238.181 193.066L238.181 179.743C238.181 178.333 237.114 177.152 235.713 177.012C234.307 176.869 233.024 177.817 232.745 179.204L230.123 192.268L228.884 180.489C228.77 179.399 227.904 178.541 226.814 178.434C225.586 178.313 224.481 179.18 224.305 180.404L222.384 193.784L219.33 186.622C218.906 185.633 217.814 185.108 216.777 185.398C215.437 185.775 214.608 187.116 214.869 188.485ZM233.046 346.48C232.745 346.061 232.417 345.687 232.072 345.341C233.04 341.932 234.406 338.226 237.345 333.451C241.882 326.081 242.384 327.608 245.129 323.136C247.874 318.667 236.723 314.104 226.384 313.584C217.141 313.12 217.465 314.222 211.724 316.139C205.983 318.055 206.483 324.442 211.724 328.593C215.319 331.439 219.029 341.194 221.007 347.043C220.901 347.215 220.801 347.392 220.705 347.574C217.546 353.517 211.124 364.162 202.369 371.412C189.642 381.95 177.539 401.829 191.139 412.497L269.06 412.497C269.06 412.497 273.391 411.22 273.369 403.984C273.321 388.91 241.239 357.933 233.046 346.48ZM153.939 195.932L151.478 199.693L158.211 202.407L159.204 199.822L162.331 199.822L160.873 196.274ZM167.951 196.47L167.655 199.822L169.89 199.822L173.434 201.799L171.002 196.47ZM77.369 292.561C77.363 290.751 77.363 288.939 77.369 287.129C77.371 286.927 77.306 286.877 77.112 286.879C76.082 286.885 75.049 286.863 74.019 286.888C73.242 286.907 72.583 286.684 71.999 286.049C71.637 286.756 71.276 287.411 70.968 288.092C70.817 288.421 70.734 288.792 70.686 289.152C70.553 290.122 71.003 290.874 71.665 291.517C72.483 292.309 73.508 292.649 74.611 292.739C75.446 292.807 76.288 292.781 77.128 292.807C77.316 292.812 77.371 292.75 77.369 292.561ZM72.165 272.369C73.74 273.266 75.315 274.172 76.885 275.083C77.03 275.169 77.084 275.144 77.163 275.006C77.726 274.023 78.297 273.045 78.865 272.064C79.115 271.631 79.47 271.312 79.924 271.105C80.084 271.033 80.253 270.982 80.43 270.916C80.06 270.223 79.698 269.534 79.198 268.93C78.242 267.776 77.238 267.491 75.762 267.965C74.889 268.243 74.223 268.825 73.642 269.514C73.003 270.272 72.549 271.147 72.061 271.998C71.955 272.18 71.988 272.268 72.165 272.369ZM87.16 280.953C87.724 281.926 88.283 282.902 88.843 283.881C88.919 284.015 88.992 284.156 89.048 284.303C89.237 284.794 89.191 285.292 89.047 285.823C89.935 285.821 90.799 285.859 91.656 285.676C92.755 285.443 93.481 284.816 93.822 283.737C94.163 282.664 94.04 281.624 93.663 280.59C93.325 279.662 92.763 278.848 92.301 277.984C92.218 277.823 92.141 277.803 91.985 277.893C90.411 278.806 88.832 279.715 87.251 280.616C87.084 280.713 87.068 280.797 87.16 280.953ZM78.953 267.259C79.704 267.667 80.218 268.31 80.634 269.034C81.165 269.957 81.676 270.89 82.201 271.818C82.626 272.573 83.056 273.325 83.488 274.076C83.573 274.225 83.575 274.315 83.4 274.414C82.797 274.747 82.207 275.103 81.612 275.452C81.54 275.493 81.47 275.541 81.36 275.612C83.885 276.281 86.367 276.942 88.856 277.602C89.54 275.061 90.211 272.558 90.895 270.018C90.803 270.067 90.746 270.098 90.689 270.13C90.095 270.467 89.5 270.803 88.908 271.138C88.659 271.278 88.649 271.278 88.5 271.024C88.349 270.762 88.191 270.508 88.058 270.238C87.288 268.674 86.139 267.478 84.584 266.686C83.446 266.107 82.238 265.793 80.946 265.793C79.924 265.793 78.918 265.859 77.935 266.168C77.357 266.35 76.801 266.587 76.293 266.929C76.358 266.918 76.427 266.91 76.492 266.896C77.354 266.736 78.179 266.839 78.953 267.259ZM69.578 289.002C69.617 288.206 69.922 287.491 70.317 286.813C71.192 285.301 72.072 283.791 72.95 282.282C73.058 282.095 73.172 281.909 73.293 281.709C74.045 282.15 74.768 282.572 75.492 282.995C75.505 282.984 75.516 282.971 75.53 282.958C74.863 280.439 74.196 277.92 73.523 275.374C71.002 276.05 68.505 276.72 65.953 277.403C66.058 277.465 66.12 277.501 66.181 277.538C66.799 277.898 67.416 278.262 68.036 278.617C68.164 278.69 68.198 278.747 68.115 278.883C67.832 279.351 67.561 279.824 67.287 280.296C66.705 281.299 66.385 282.381 66.293 283.534C66.161 285.169 66.55 286.695 67.278 288.138C67.994 289.555 69.014 290.714 70.349 291.582C70.409 291.62 70.468 291.653 70.527 291.69C69.868 290.902 69.527 290.019 69.578 289.002ZM92.945 286.385C92.24 286.799 91.456 286.91 90.659 286.914C88.711 286.925 86.763 286.916 84.819 286.922C84.623 286.922 84.556 286.866 84.558 286.665C84.569 285.955 84.562 285.244 84.559 284.533C84.559 284.476 84.553 284.417 84.549 284.388C82.713 286.207 80.878 288.028 79.023 289.865C80.867 291.727 82.702 293.581 84.538 295.436C84.556 295.429 84.571 295.42 84.589 295.414C84.589 295.35 84.589 295.285 84.589 295.218C84.589 294.53 84.589 293.838 84.589 293.15C84.589 292.842 84.595 292.845 84.893 292.836C85.724 292.812 86.567 292.853 87.386 292.741C89.634 292.437 91.428 291.304 92.785 289.505C93.593 288.434 94.167 287.229 94.437 285.907C94.546 285.38 94.584 284.838 94.654 284.303C94.637 284.303 94.617 284.3 94.599 284.299C94.263 285.165 93.766 285.904 92.945 286.385ZM117.434 248.78C116.311 248.78 115.399 249.802 115.399 251.059C115.399 251.358 115.454 251.641 115.548 251.901L114.988 253.34L117.434 253.34C118.558 253.34 119.469 252.319 119.469 251.059C119.469 249.802 118.558 248.78 117.434 248.78ZM87.404 399.135C87.404 395.65 85.571 392.826 83.308 392.826C81.047 392.826 79.212 395.65 79.212 399.135C79.212 402.617 81.047 405.441 83.308 405.441C85.571 405.441 87.404 402.617 87.404 399.135ZM88.975 390.782C90.325 392.954 91.159 395.892 91.159 399.135C91.159 405.81 87.645 411.22 83.308 411.22C78.972 411.22 75.457 405.81 75.457 399.135C75.457 395.892 76.293 392.954 77.643 390.782ZM46.428 399.135C46.428 395.65 44.594 392.826 42.328 392.826C40.068 392.826 38.233 395.65 38.233 399.135C38.233 402.617 40.068 405.441 42.328 405.441C44.594 405.441 46.428 402.617 46.428 399.135ZM47.995 390.782C49.346 392.954 50.182 395.892 50.182 399.135C50.182 405.81 46.666 411.22 42.328 411.22C37.993 411.22 34.478 405.81 34.478 399.135C34.478 395.892 35.314 392.954 36.665 390.782ZM202.852 286.756L190.824 286.756C190.493 286.756 190.225 286.486 190.225 286.156L190.225 260.206C188.743 257.677 187.089 255.319 185.155 253.207L185.155 295.868L209.038 295.868C206.621 293 204.613 289.926 202.852 286.756ZM191.422 262.348L191.422 285.558L202.201 285.558C198.054 277.775 195.247 269.506 191.422 262.348ZM105.057 248.78C105.155 250.561 105.789 252.437 106.342 253.34L103.013 253.34L103.3 248.78L105.057 248.78" fill-opacity="1" fill-rule="nonzero"/></g><g clip-path="url(#id4)"><path fill="rgb(7.839966%, 12.159729%, 20.779419%)" d="M249.76 269.92C249.433 269.738 249.022 269.855 248.837 270.181L245.055 276.937C244.873 277.264 244.988 277.677 245.315 277.861C245.642 278.043 246.055 277.926 246.239 277.599L250.022 270.844C250.203 270.517 250.087 270.104 249.76 269.92ZM232.886 269.92C232.56 270.104 232.443 270.517 232.627 270.844L236.41 277.599C236.594 277.926 237.007 278.043 237.334 277.861C237.66 277.677 237.776 277.264 237.594 276.937L233.811 270.181C233.627 269.855 233.213 269.738 232.886 269.92ZM254.622 266.635C254.984 267.298 255.199 268.053 255.199 268.86L255.199 273.023C255.692 273.358 256.438 273.876 257.512 274.655C259.824 276.332 268.043 286.869 263.591 287.349C260.025 287.732 255.104 284.125 253.287 282.67C252.973 282.901 252.636 283.103 252.269 283.248L250.53 284.112C252.644 285.331 253.991 288.017 258.707 289.624C264.332 291.539 267.205 288.906 266.847 284.235C266.488 279.566 254.625 266.616 254.625 266.616ZM223.941 289.624C228.649 288.02 230 285.34 232.108 284.118L230.276 283.207C229.948 283.067 229.647 282.881 229.362 282.672C227.542 284.125 222.623 287.732 219.057 287.349C214.604 286.869 222.825 276.332 225.136 274.655C226.211 273.876 226.956 273.358 227.45 273.023L227.45 268.86C227.45 268.053 227.664 267.298 228.024 266.635L228.024 266.616C228.024 266.616 216.16 279.566 215.801 284.235C215.442 288.906 218.314 291.539 223.941 289.624ZM219.057 244.554L240.465 244.554C240.471 244.554 240.477 244.549 240.485 244.549L240.508 245.289L254.486 242.217C254.809 242.145 255.013 241.826 254.942 241.502C254.87 241.18 254.547 240.973 254.229 241.048L241.059 243.942C241.052 243.617 240.789 243.356 240.465 243.356L219.057 243.356C218.727 243.356 218.459 243.626 218.459 243.955C218.459 244.286 218.727 244.554 219.057 244.554ZM159.241 359.447L183.458 359.447C183.789 359.447 184.058 359.18 184.058 358.848C184.058 358.519 183.789 358.249 183.458 358.249L159.241 358.249C158.911 358.249 158.643 358.519 158.643 358.848C158.643 359.18 158.911 359.447 159.241 359.447ZM222.082 364.659C222.079 364.659 222.077 364.659 222.074 364.659C221.748 364.659 221.481 364.919 221.476 365.249C221.415 370.762 219.099 375.956 216.841 380.309C216.249 381.452 215.635 382.584 215.02 383.719C213.079 387.302 211.076 391.006 209.791 394.961C207.827 401.015 208.014 406.772 210.319 411.174C210.426 411.38 210.635 411.496 210.85 411.496C210.944 411.496 211.038 411.474 211.126 411.429C211.42 411.275 211.531 410.913 211.38 410.619C208.472 405.067 209.85 398.659 210.928 395.333C212.179 391.479 214.159 387.824 216.073 384.289C216.691 383.148 217.308 382.01 217.904 380.859C220.227 376.384 222.608 371.028 222.674 365.262C222.678 364.933 222.412 364.66 222.082 364.659ZM167.443 256.703L150.814 256.703C150.805 256.703 150.799 256.703 150.79 256.703L129.727 256.703C129.396 256.703 129.128 256.971 129.128 257.302C129.128 257.633 129.396 257.9 129.727 257.9L150.073 257.9L147.165 272.399L130.637 272.399C130.306 272.399 130.036 272.667 130.036 272.998C130.036 273.328 130.306 273.598 130.637 273.598L147.643 273.598C147.648 273.598 147.652 273.598 147.657 273.598C147.66 273.598 147.663 273.598 147.668 273.598L180.273 273.598C180.603 273.598 180.87 273.328 180.87 272.998C180.87 272.667 180.603 272.399 180.273 272.399L148.386 272.399L151.292 257.9L167.443 257.9C172.356 257.9 176.743 254.605 178.114 249.888C178.206 249.572 178.026 249.239 177.708 249.146C177.388 249.052 177.059 249.236 176.965 249.555C175.741 253.763 171.826 256.703 167.443 256.703ZM195.164 411.584C193.749 411.083 192.554 409.78 191.885 408.005C191.262 406.345 191.133 404.513 191.01 402.738C190.986 402.408 190.695 402.165 190.37 402.185C190.041 402.207 189.793 402.492 189.815 402.823C189.944 404.681 190.08 406.604 190.767 408.427C191.558 410.533 193.017 412.095 194.765 412.712C194.83 412.736 194.899 412.747 194.964 412.747C195.212 412.747 195.442 412.593 195.53 412.348C195.639 412.036 195.475 411.694 195.164 411.584ZM126.692 243.632C126.374 243.722 126.19 244.054 126.278 244.372C126.352 244.635 126.591 244.808 126.854 244.808C126.907 244.808 126.962 244.802 127.017 244.786L154.786 236.973C154.814 236.982 154.845 236.99 154.875 236.998C155.104 237.043 155.327 236.953 155.464 236.78L161.259 235.15C161.367 235.211 161.492 235.244 161.623 235.226C162.752 235.111 164.035 234.977 165.101 235.411C165.965 235.762 166.752 236.508 167.507 237.689C167.686 237.965 168.055 238.046 168.333 237.868C168.612 237.691 168.693 237.32 168.515 237.041C167.621 235.646 166.652 234.751 165.552 234.303C164.513 233.879 163.38 233.875 162.36 233.954L172.796 203.291C172.903 202.978 172.736 202.637 172.423 202.53C172.11 202.427 171.77 202.591 171.664 202.905L161.096 233.952L155.797 235.444L162.015 204.44C162.079 204.116 161.87 203.8 161.546 203.736C161.219 203.672 160.906 203.881 160.842 204.206L154.503 235.808L136.968 240.742L141.788 213.584C141.846 213.259 141.628 212.947 141.304 212.89C140.972 212.831 140.668 213.048 140.609 213.375L139.016 222.353C137.268 219.789 138.095 215.304 138.104 215.253C138.165 214.929 137.953 214.615 137.628 214.551C137.304 214.49 136.992 214.702 136.929 215.027C136.88 215.28 135.808 221.075 138.745 223.879L135.69 241.102ZM242.572 379.449C242.429 379.151 242.074 379.021 241.774 379.164C241.476 379.307 241.348 379.662 241.491 379.962L243.603 384.414C243.706 384.632 243.921 384.756 244.144 384.756C244.23 384.756 244.318 384.739 244.399 384.7C244.697 384.557 244.826 384.199 244.684 383.901ZM244.313 321.134C242.708 321.065 241.366 321.923 240.072 322.753C239.855 322.893 239.64 323.029 239.426 323.161C237.882 324.109 236.215 324.793 234.46 325.199C234.614 323.551 235.022 319.762 235.641 317.87C235.741 317.557 235.57 317.216 235.256 317.116C234.941 317.012 234.603 317.186 234.5 317.5C233.792 319.681 233.362 323.999 233.237 325.434C232.412 325.552 231.454 325.588 230.636 325.213C230.563 325.177 230.491 325.14 230.419 325.101C230.393 325.082 230.364 325.065 230.336 325.052C230.051 324.883 229.776 324.673 229.49 324.453C229.009 324.087 228.513 323.707 227.901 323.47C226.389 322.887 224.798 323.411 223.397 323.874C223.176 323.946 222.956 324.019 222.739 324.087C222.524 324.154 222.308 324.216 222.088 324.273C221.582 320.291 219.222 316.587 219.116 316.422C218.939 316.144 218.568 316.065 218.29 316.243C218.012 316.422 217.933 316.793 218.11 317.07C218.135 317.109 220.47 320.771 220.912 324.528C219.012 324.859 217.051 324.824 215.16 324.442C215.117 324.427 215.068 324.416 215.02 324.414C212.827 323.949 210.733 323.018 208.942 321.658C208.679 321.458 208.304 321.509 208.104 321.772C207.905 322.035 207.955 322.412 208.218 322.613C210.117 324.053 212.33 325.048 214.652 325.557C215.305 326.329 218.391 330.193 220.904 336.837C221.023 337.146 221.369 337.302 221.676 337.186C221.985 337.069 222.141 336.722 222.024 336.414C220.02 331.114 217.7 327.578 216.409 325.844C218.646 326.094 220.937 325.901 223.095 325.23C223.319 325.16 223.544 325.087 223.77 325.01C225.044 324.592 226.359 324.159 227.471 324.589C227.921 324.763 228.329 325.074 228.764 325.406C228.965 325.561 229.174 325.719 229.39 325.868C228.097 330.952 227.244 336.264 226.851 341.662C226.827 341.993 227.077 342.279 227.406 342.302C227.42 342.304 227.434 342.304 227.45 342.304C227.761 342.304 228.022 342.063 228.046 341.749C228.426 336.518 229.244 331.371 230.48 326.438C231.656 326.857 232.904 326.717 233.888 326.54C233.897 326.538 233.906 326.538 233.915 326.535C236.094 326.133 238.16 325.344 240.05 324.184C240.272 324.047 240.493 323.905 240.717 323.762C241.907 322.999 243.039 322.283 244.265 322.329C244.585 322.334 244.874 322.085 244.888 321.755C244.901 321.423 244.644 321.144 244.313 321.134ZM248.333 388.21C248.153 387.934 247.782 387.855 247.504 388.037C247.228 388.219 247.151 388.59 247.333 388.866C249.96 392.873 251.918 396.331 252.932 400.172C254.095 404.589 253.655 408.962 251.717 412.165C251.545 412.45 251.637 412.817 251.921 412.989C252.017 413.048 252.125 413.074 252.229 413.074C252.432 413.074 252.629 412.973 252.74 412.787C254.846 409.305 255.337 404.596 254.087 399.865C252.971 395.633 250.662 391.763 248.333 388.21ZM123.495 227.207C123.574 227.242 125.46 228.113 125.67 231.069C125.692 231.385 125.955 231.626 126.265 231.626C126.28 231.626 126.295 231.623 126.309 231.623C126.637 231.6 126.885 231.315 126.863 230.985C126.6 227.268 124.074 226.152 123.966 226.105C123.664 225.978 123.317 226.119 123.186 226.42C123.054 226.722 123.195 227.073 123.495 227.207ZM116.539 352.165L140.869 358.467C140.92 358.479 140.97 358.484 141.02 358.484C141.286 358.484 141.53 358.306 141.6 358.037C141.681 357.716 141.49 357.389 141.17 357.305L116.84 351.004C116.519 350.92 116.192 351.113 116.11 351.434C116.026 351.755 116.219 352.082 116.539 352.165ZM155.456 297.742C155.727 297.742 155.974 297.555 156.037 297.276C156.112 296.957 155.911 296.633 155.59 296.559L143.955 293.871C143.632 293.795 143.313 293.996 143.235 294.319C143.161 294.642 143.363 294.962 143.685 295.036L155.321 297.726C155.364 297.737 155.411 297.742 155.456 297.742ZM180.87 277.841C180.87 277.51 180.603 277.242 180.273 277.242L130.637 277.242C130.306 277.242 130.036 277.51 130.036 277.841C130.036 278.17 130.306 278.438 130.637 278.438L180.273 278.438C180.603 278.438 180.87 278.17 180.87 277.841ZM233.417 342.875C232.055 343.595 228.928 344.963 224.502 345.177C224.125 343.259 223.656 341.365 223.095 339.537C222.996 339.221 222.663 339.044 222.345 339.143C222.029 339.24 221.853 339.575 221.95 339.891C222.481 341.614 222.926 343.397 223.288 345.203C222.127 345.201 220.889 345.117 219.579 344.924C219.264 344.876 218.976 345.115 218.976 345.435L218.976 347.66C218.976 347.878 219.108 348.071 219.312 348.147C219.972 348.393 221.889 348.661 224.219 348.663C224.023 350.509 223.66 352.336 223.116 354.109C223.02 354.425 223.197 354.758 223.513 354.857C223.571 354.875 223.63 354.884 223.689 354.884C223.945 354.884 224.182 354.716 224.261 354.46C224.84 352.564 225.224 350.612 225.423 348.641C226.417 348.602 227.456 348.51 228.482 348.349C228.91 349.633 229.509 350.853 230.272 351.985C230.386 352.156 230.574 352.248 230.767 352.248C230.884 352.248 231 352.215 231.103 352.145C231.378 351.96 231.449 351.588 231.264 351.314C230.592 350.319 230.063 349.251 229.674 348.128C231.149 347.808 232.552 347.32 233.711 346.605C234.009 346.421 234.18 346.083 234.18 345.732L234.18 343.336C234.18 342.941 233.764 342.69 233.417 342.875ZM9.817 232.982L56.346 232.982C58.139 232.982 59.791 232.081 60.762 230.571L91.702 182.432C91.882 182.155 91.801 181.784 91.525 181.604C91.246 181.426 90.873 181.507 90.696 181.784L59.756 229.923C59.006 231.089 57.731 231.786 56.346 231.786L9.817 231.786C9.486 231.786 9.218 232.054 9.218 232.385C9.218 232.714 9.486 232.982 9.817 232.982ZM95.248 385.672C95.248 385.342 94.981 385.072 94.649 385.072L54.857 385.072L57.916 251.658L102.878 251.658C103.208 251.658 103.476 251.391 103.476 251.059C103.476 250.73 103.208 250.463 102.878 250.463L6.585 250.463C6.253 250.463 5.986 250.73 5.986 251.059C5.986 251.391 6.253 251.658 6.585 251.658L56.719 251.658L53.66 385.072L14.104 385.072C13.773 385.072 13.505 385.342 13.505 385.672C13.505 386.003 13.773 386.271 14.104 386.271L53.631 386.271L53.541 390.182L18.553 390.182C18.223 390.182 17.955 390.45 17.955 390.782C17.955 391.113 18.223 391.381 18.553 391.381L31.281 391.381C30.134 393.48 29.436 396.177 29.436 399.135C29.436 405.81 32.95 411.22 37.288 411.22L42.328 411.22C41.443 411.22 40.594 410.983 39.798 410.566C39.625 410.474 39.454 410.37 39.285 410.261C39.258 410.244 39.23 410.226 39.204 410.208C39.048 410.104 38.895 409.992 38.741 409.87C38.704 409.839 38.669 409.809 38.632 409.78C38.489 409.662 38.349 409.539 38.213 409.41C38.169 409.368 38.125 409.324 38.084 409.28C37.954 409.153 37.827 409.022 37.704 408.883C37.656 408.83 37.61 408.774 37.564 408.717C35.691 406.512 34.478 403.045 34.478 399.135C34.478 396.177 35.177 393.48 36.325 391.381L53.515 391.381L53.061 411.205C53.052 411.536 53.314 411.81 53.647 411.817C53.649 411.819 53.653 411.819 53.658 411.819C53.982 411.819 54.25 411.558 54.256 411.233L54.828 386.271L94.649 386.271C94.981 386.271 95.248 386.003 95.248 385.672ZM8.53 246.368L16.606 246.368C17.637 246.368 18.47 245.566 18.54 244.554L36.998 244.554C37.066 245.566 37.9 246.368 38.93 246.368L47.006 246.368C48.035 246.368 48.868 245.566 48.938 244.554L55.135 244.554C55.465 244.554 55.732 244.286 55.732 243.955C55.732 243.626 55.465 243.356 55.135 243.356L48.938 243.356C48.868 242.344 48.035 241.544 47.006 241.544L38.93 241.544C37.901 241.544 37.066 242.344 36.998 243.356L18.54 243.356C18.47 242.344 17.637 241.544 16.606 241.544L8.53 241.544C7.501 241.544 6.667 242.344 6.597 243.356L5.148 243.356C4.817 243.356 4.549 243.626 4.549 243.955C4.549 244.286 4.817 244.554 5.148 244.554L6.597 244.554C6.667 245.566 7.501 246.368 8.53 246.368ZM159.227 184.246L159.504 182.508C161.7 181.369 162.816 176.762 162.816 176.762L157.7 176.762L157.02 181.549C158.685 182.245 159.227 184.246 159.227 184.246ZM168.118 188.534C168.035 188.389 167.851 188.341 167.711 188.423C167.566 188.504 167.515 188.689 167.599 188.831C167.985 189.503 168.669 189.99 169.426 190.135C169.59 190.166 169.755 190.181 169.918 190.181C170.526 190.181 171.132 189.977 171.605 189.597C171.737 189.494 171.756 189.306 171.653 189.176C171.55 189.046 171.364 189.027 171.233 189.127C170.763 189.503 170.132 189.659 169.54 189.547C168.949 189.432 168.417 189.055 168.118 188.534ZM171.666 187.327C172.395 187.136 171.459 185.633 170.904 184.841C170.765 184.645 170.463 184.702 170.406 184.937L169.87 187.109C169.87 187.109 170.666 187.59 171.666 187.327ZM172.228 180.103C172.305 180.103 172.384 180.075 172.443 180.016C172.978 179.471 173.848 179.303 174.51 179.616C174.66 179.687 174.837 179.623 174.907 179.474C174.98 179.323 174.917 179.145 174.765 179.074C173.866 178.649 172.736 178.864 172.015 179.594C171.899 179.713 171.901 179.902 172.02 180.017C172.077 180.075 172.153 180.103 172.228 180.103ZM165.991 180.987C166.042 181.018 166.096 181.031 166.149 181.031C166.25 181.031 166.347 180.981 166.404 180.891C166.704 180.408 166.987 179.994 167.428 179.816C167.792 179.667 168.263 179.682 168.906 179.862C169.068 179.908 169.23 179.813 169.274 179.653C169.318 179.496 169.225 179.329 169.068 179.285C168.579 179.149 167.851 178.996 167.202 179.261C166.546 179.528 166.171 180.132 165.895 180.575C165.809 180.716 165.851 180.9 165.991 180.987ZM174.052 182.508C174.052 182.067 173.776 181.71 173.434 181.71C173.092 181.71 172.815 182.067 172.815 182.508C172.815 182.949 173.092 183.307 173.434 183.307C173.776 183.307 174.052 182.949 174.052 182.508ZM168.368 182.907C168.708 182.907 168.987 182.55 168.987 182.108C168.987 181.668 168.708 181.31 168.368 181.31C168.026 181.31 167.75 181.668 167.75 182.108C167.75 182.55 168.026 182.907 168.368 182.907ZM80.262 410.261C80.235 410.244 80.209 410.226 80.183 410.208C80.025 410.104 79.871 409.992 79.72 409.87C79.683 409.839 79.645 409.809 79.608 409.78C79.466 409.662 79.327 409.539 79.192 409.41C79.148 409.368 79.104 409.324 79.06 409.28C78.933 409.153 78.806 409.022 78.681 408.883C78.632 408.83 78.589 408.774 78.54 408.717C76.667 406.512 75.457 403.045 75.457 399.135C75.457 396.177 76.156 393.48 77.304 391.381L94.325 391.381C94.656 391.381 94.923 391.113 94.923 390.782C94.923 390.45 94.656 390.182 94.325 390.182L67.383 390.182C67.052 390.182 66.784 390.45 66.784 390.782C66.784 391.113 67.052 391.381 67.383 391.381L72.26 391.381C71.113 393.48 70.413 396.177 70.413 399.135C70.413 405.81 73.929 411.22 78.266 411.22L83.308 411.22C82.422 411.22 81.571 410.983 80.777 410.566C80.604 410.474 80.43 410.37 80.262 410.261ZM83.763 411.22L83.763 411.183C83.612 411.198 83.461 411.22 83.308 411.22ZM83.308 392.228C80.674 392.228 78.612 395.262 78.612 399.135C78.612 403.007 80.674 406.04 83.308 406.04C85.941 406.04 88.003 403.007 88.003 399.135C88.003 395.262 85.941 392.228 83.308 392.228ZM181.429 365.007L161.585 365.007L161.89 370.334L133.317 370.334L134.896 364.421L115.399 358.848L113.59 370.334L95.618 370.334L95.551 371.423L113.418 371.423L108.982 399.563C96.454 399.484 92.034 405.246 92.034 405.246L122.067 412.497L133.028 371.423L161.954 371.423L163.715 402.277C154.512 403.555 154.512 412.497 154.512 412.497L181.429 412.497L181.429 371.423L202.356 371.423C202.361 371.418 202.365 371.416 202.369 371.412C202.791 371.063 203.203 370.699 203.615 370.334L181.429 370.334ZM42.785 411.183C42.634 411.198 42.484 411.22 42.328 411.22L42.785 411.22ZM42.331 392.228C39.697 392.228 37.634 395.262 37.634 399.135C37.634 403.007 39.697 406.04 42.331 406.04C44.962 406.04 47.026 403.007 47.026 399.135C47.026 395.262 44.962 392.228 42.331 392.228ZM190.824 286.756L202.852 286.756C202.631 286.357 202.413 285.957 202.201 285.558L191.422 285.558L191.422 262.348C191.034 261.622 190.636 260.909 190.225 260.206L190.225 286.156C190.225 286.486 190.493 286.756 190.824 286.756ZM151.235 305.908L154.053 305.908L153.934 304.712L151.47 304.712ZM221.16 305.908C220.472 305.522 219.803 305.123 219.152 304.712L181.701 304.712C181.719 305.112 181.734 305.511 181.751 305.908ZM125.008 304.712L99.766 304.712L99.691 305.908L124.795 305.908ZM253.321 370.334L275.433 370.334C275.49 370.697 275.549 371.061 275.602 371.423L254.234 371.423C253.929 371.058 253.626 370.697 253.321 370.334" fill-opacity="1" fill-rule="nonzero"/></g><g fill="rgb(39.99939%, 50.19989%, 41.569519%)" fill-opacity="0.4"><g transform="translate(331.693036, 430.111182)"><g><path d="M21.188 -35.738L20.764 -35.738C7.486 -35.738 1.319 -21.612 1.319 -7.486C1.319 6.498 7.392 20.529 18.645 20.717C28.58 20.529 31.546 12.949 31.735 9.981L31.735 9.794C31.735 7.863 30.134 6.874 28.439 6.874C26.744 6.874 25.049 7.863 24.861 9.888C24.484 15.162 21.47 16.574 19.116 16.574L18.975 16.574C14.125 16.479 11.63 5.368 11.63 -6.215C11.63 -18.834 14.596 -32.017 20.623 -32.065L20.671 -32.065C25.191 -32.065 26.037 -25.661 26.037 -19.022C26.037 -16.668 25.944 -14.266 25.85 -12.148L25.85 -11.724C25.85 -8.098 27.686 -6.639 29.71 -6.639C32.112 -6.639 34.842 -8.664 35.126 -11.489C35.267 -12.807 35.361 -14.22 35.361 -15.585C35.361 -25.379 31.5 -35.502 21.188 -35.738ZM21.188 -35.738"/></g></g></g><g fill="rgb(39.99939%, 50.19989%, 41.569519%)" fill-opacity="0.4"><g transform="translate(491.842987, 430.111182)"><g><path d="M0.518 -31.546C0.753 -16.386 0.989 4.661 2.072 13.466C2.119 15.774 4.003 16.857 5.886 16.857C7.769 16.857 9.699 15.726 9.699 13.561C10.029 7.299 10.736 -20.341 11.159 -29.146L11.159 -29.381C11.159 -33.807 8.052 -35.879 5.179 -35.879C2.778 -35.879 0.518 -34.371 0.518 -31.546ZM0.518 -31.546"/></g></g></g><g fill="rgb(39.99939%, 50.19989%, 41.569519%)" fill-opacity="0.4"><g transform="translate(545.966834, 430.111182)"><g><path d="M19.211 -10.029C19.399 -10.688 19.54 -11.583 19.54 -12.619C19.54 -15.915 18.174 -20.435 13.466 -21.753C12.337 -22.083 11.253 -22.224 10.311 -22.224C2.778 -22.224 1.13 -12.665 0.942 -3.955L0.942 -3.061C0.942 3.39 3.719 13.749 10.547 13.984L10.782 13.984C16.15 13.984 19.964 6.78 19.964 3.014C19.964 1.648 19.493 0.753 18.41 0.753C17.139 0.801 17.091 1.883 16.95 2.919C16.432 6.309 15.444 9.981 11.818 9.981C11.677 9.981 11.489 9.935 11.3 9.935C9.087 9.699 8.052 7.816 8.052 0.518C8.052 -1.083 8.098 -2.966 8.193 -5.132C10.359 -5.462 18.081 -5.65 19.211 -10.029ZM13.136 -18.551C14.832 -18.128 16.245 -15.208 16.245 -12.854C16.245 -11.441 15.726 -10.265 14.502 -9.888C13.09 -9.464 11.96 -9.276 11.065 -9.276C9.464 -9.276 8.664 -9.794 8.664 -10.5L8.664 -10.736C8.664 -12.195 9.276 -18.645 12.43 -18.645C12.665 -18.645 12.901 -18.599 13.136 -18.551ZM13.136 -18.551"/></g></g></g><g fill="rgb(39.99939%, 50.19989%, 41.569519%)" fill-opacity="0.4"><g transform="translate(636.644409, 430.111182)"><g><path d="M18.551 15.162C18.693 15.162 18.881 15.208 19.022 15.208C21.518 15.208 22.836 13.136 23.496 10.594C23.967 8.616 25.708 1.836 25.708 -4.944C25.708 -13.042 23.26 -21.188 13.325 -21.188L12.524 -21.188C4.991 -21.188 1.13 -16.809 1.13 -10.406C1.13 -10.076 1.178 -9.699 1.178 -9.369C1.271 -7.769 2.684 -6.874 4.003 -6.874C5.179 -6.874 6.262 -7.581 6.262 -9.182C6.357 -16.479 9.981 -18.786 12.242 -18.881C18.41 -18.693 17.562 -9.935 17.703 -4.708L17.703 -4.52C17.703 -4.238 17.657 -4.096 17.516 -4.096C17.045 -4.096 15.49 -5.932 11.677 -5.932C4.991 -5.932 1.365 0.094 1.365 4.897C1.365 5.791 1.506 6.592 1.742 7.345C2.919 11.065 5.179 14.361 10.736 14.361L11.395 14.361C15.633 14.125 16.574 11.159 16.857 11.159C16.857 11.159 16.903 11.159 16.903 11.206C16.998 11.489 17.045 11.771 17.045 12.053C17.045 12.807 16.762 13.466 16.762 14.031C16.762 14.643 17.091 15.02 18.551 15.162ZM11.866 11.677C8.334 11.583 7.627 8.004 7.627 5.132C7.627 3.532 7.863 2.119 7.911 1.79C8.24 -0.047 9.369 -3.155 13.607 -3.202C15.397 -3.202 17.845 -1.695 17.845 -1.13L17.845 1.224C17.845 2.26 17.798 3.861 17.421 7.299C17.327 8.334 15.162 11.677 11.912 11.677ZM11.866 11.677"/></g></g></g><g fill="rgb(39.99939%, 50.19989%, 41.569519%)" fill-opacity="0.4"><g transform="translate(752.768302, 430.111182)"><g><path d="M1.695 -15.397C1.413 -14.22 1.271 -10.124 1.271 -5.509C1.271 0.141 1.506 6.639 1.883 9.369C2.166 11.206 4.003 12.148 5.839 12.148C7.581 12.148 9.276 11.3 9.558 9.653C10.547 4.003 11.253 -2.448 11.441 -8.193C11.441 -8.616 11.395 -9.087 11.395 -9.558C11.395 -10.217 11.489 -10.877 11.818 -11.489C12.807 -13.184 14.926 -14.502 16.762 -14.502C17.751 -14.502 18.645 -14.078 19.211 -13.184C20.576 -11.159 20.999 -8.381 20.999 -5.368C20.999 -0.236 19.775 5.556 19.775 8.993C19.775 10.453 19.964 11.489 20.576 11.96C21.047 12.289 21.565 12.478 22.13 12.478C22.695 12.478 23.26 12.289 23.824 12.007C25.991 11.206 27.921 4.379 27.921 -2.448C27.921 -8.616 26.321 -14.785 21.847 -16.245C20.529 -16.809 19.211 -16.998 17.939 -16.998C14.785 -16.998 12.148 -15.679 11.3 -15.444C11.348 -15.633 11.348 -15.82 11.348 -16.009C11.348 -18.033 8.993 -19.587 6.592 -19.587C4.473 -19.587 2.354 -18.41 1.695 -15.397ZM1.695 -15.397"/></g></g></g><g fill="rgb(7.839966%, 12.159729%, 20.779419%)" fill-opacity="1"><g transform="translate(322.312876, 421.665248)"><g><path d="M21.188 -35.738L20.764 -35.738C7.486 -35.738 1.319 -21.612 1.319 -7.486C1.319 6.498 7.392 20.529 18.645 20.717C28.58 20.529 31.546 12.949 31.735 9.981L31.735 9.794C31.735 7.863 30.134 6.874 28.439 6.874C26.744 6.874 25.049 7.863 24.861 9.888C24.484 15.162 21.47 16.574 19.116 16.574L18.975 16.574C14.125 16.479 11.63 5.368 11.63 -6.215C11.63 -18.834 14.596 -32.017 20.623 -32.065L20.671 -32.065C25.191 -32.065 26.037 -25.661 26.037 -19.022C26.037 -16.668 25.944 -14.266 25.85 -12.148L25.85 -11.724C25.85 -8.098 27.686 -6.639 29.71 -6.639C32.112 -6.639 34.842 -8.664 35.126 -11.489C35.267 -12.807 35.361 -14.22 35.361 -15.585C35.361 -25.379 31.5 -35.502 21.188 -35.738ZM21.188 -35.738"/></g></g></g><g fill="rgb(7.839966%, 12.159729%, 20.779419%)" fill-opacity="1"><g transform="translate(482.462827, 421.665248)"><g><path d="M0.518 -31.546C0.753 -16.386 0.989 4.661 2.072 13.466C2.119 15.774 4.003 16.857 5.886 16.857C7.769 16.857 9.699 15.726 9.699 13.561C10.029 7.299 10.736 -20.341 11.159 -29.146L11.159 -29.381C11.159 -33.807 8.052 -35.879 5.179 -35.879C2.778 -35.879 0.518 -34.371 0.518 -31.546ZM0.518 -31.546"/></g></g></g><g fill="rgb(7.839966%, 12.159729%, 20.779419%)" fill-opacity="1"><g transform="translate(536.586674, 421.665248)"><g><path d="M19.211 -10.029C19.399 -10.688 19.54 -11.583 19.54 -12.619C19.54 -15.915 18.174 -20.435 13.466 -21.753C12.337 -22.083 11.253 -22.224 10.311 -22.224C2.778 -22.224 1.13 -12.665 0.942 -3.955L0.942 -3.061C0.942 3.39 3.719 13.749 10.547 13.984L10.782 13.984C16.15 13.984 19.964 6.78 19.964 3.014C19.964 1.648 19.493 0.753 18.41 0.753C17.139 0.801 17.091 1.883 16.95 2.919C16.432 6.309 15.444 9.981 11.818 9.981C11.677 9.981 11.489 9.935 11.3 9.935C9.087 9.699 8.052 7.816 8.052 0.518C8.052 -1.083 8.098 -2.966 8.193 -5.132C10.359 -5.462 18.081 -5.65 19.211 -10.029ZM13.136 -18.551C14.832 -18.128 16.245 -15.208 16.245 -12.854C16.245 -11.441 15.726 -10.265 14.502 -9.888C13.09 -9.464 11.96 -9.276 11.065 -9.276C9.464 -9.276 8.664 -9.794 8.664 -10.5L8.664 -10.736C8.664 -12.195 9.276 -18.645 12.43 -18.645C12.665 -18.645 12.901 -18.599 13.136 -18.551ZM13.136 -18.551"/></g></g></g><g fill="rgb(7.839966%, 12.159729%, 20.779419%)" fill-opacity="1"><g transform="translate(627.264249, 421.665248)"><g><path d="M18.551 15.162C18.693 15.162 18.881 15.208 19.022 15.208C21.518 15.208 22.836 13.136 23.496 10.594C23.967 8.616 25.708 1.836 25.708 -4.944C25.708 -13.042 23.26 -21.188 13.325 -21.188L12.524 -21.188C4.991 -21.188 1.13 -16.809 1.13 -10.406C1.13 -10.076 1.178 -9.699 1.178 -9.369C1.271 -7.769 2.684 -6.874 4.003 -6.874C5.179 -6.874 6.262 -7.581 6.262 -9.182C6.357 -16.479 9.981 -18.786 12.242 -18.881C18.41 -18.693 17.562 -9.935 17.703 -4.708L17.703 -4.52C17.703 -4.238 17.657 -4.096 17.516 -4.096C17.045 -4.096 15.49 -5.932 11.677 -5.932C4.991 -5.932 1.365 0.094 1.365 4.897C1.365 5.791 1.506 6.592 1.742 7.345C2.919 11.065 5.179 14.361 10.736 14.361L11.395 14.361C15.633 14.125 16.574 11.159 16.857 11.159C16.857 11.159 16.903 11.159 16.903 11.206C16.998 11.489 17.045 11.771 17.045 12.053C17.045 12.807 16.762 13.466 16.762 14.031C16.762 14.643 17.091 15.02 18.551 15.162ZM11.866 11.677C8.334 11.583 7.627 8.004 7.627 5.132C7.627 3.532 7.863 2.119 7.911 1.79C8.24 -0.047 9.369 -3.155 13.607 -3.202C15.397 -3.202 17.845 -1.695 17.845 -1.13L17.845 1.224C17.845 2.26 17.798 3.861 17.421 7.299C17.327 8.334 15.162 11.677 11.912 11.677ZM11.866 11.677"/></g></g></g><g fill="rgb(7.839966%, 12.159729%, 20.779419%)" fill-opacity="1"><g transform="translate(743.388142, 421.665248)"><g><path d="M1.695 -15.397C1.413 -14.22 1.271 -10.124 1.271 -5.509C1.271 0.141 1.506 6.639 1.883 9.369C2.166 11.206 4.003 12.148 5.839 12.148C7.581 12.148 9.276 11.3 9.558 9.653C10.547 4.003 11.253 -2.448 11.441 -8.193C11.441 -8.616 11.395 -9.087 11.395 -9.558C11.395 -10.217 11.489 -10.877 11.818 -11.489C12.807 -13.184 14.926 -14.502 16.762 -14.502C17.751 -14.502 18.645 -14.078 19.211 -13.184C20.576 -11.159 20.999 -8.381 20.999 -5.368C20.999 -0.236 19.775 5.556 19.775 8.993C19.775 10.453 19.964 11.489 20.576 11.96C21.047 12.289 21.565 12.478 22.13 12.478C22.695 12.478 23.26 12.289 23.824 12.007C25.991 11.206 27.921 4.379 27.921 -2.448C27.921 -8.616 26.321 -14.785 21.847 -16.245C20.529 -16.809 19.211 -16.998 17.939 -16.998C14.785 -16.998 12.148 -15.679 11.3 -15.444C11.348 -15.633 11.348 -15.82 11.348 -16.009C11.348 -18.033 8.993 -19.587 6.592 -19.587C4.473 -19.587 2.354 -18.41 1.695 -15.397ZM1.695 -15.397"/></g></g></g><g fill="rgb(7.839966%, 12.159729%, 20.779419%)" fill-opacity="1"><g transform="translate(408.469386, 222.913404)"><g><path d="M14.069 -2.015C14.069 -1.696 13.919 -1.411 13.621 -1.158C13.322 -0.908 13.014 -0.783 12.699 -0.783C12.604 -0.783 12.539 -0.778 12.502 -0.769C12.466 -0.759 12.405 -0.787 12.32 -0.852C12.237 -0.918 12.103 -1.044 11.916 -1.231C11.728 -1.418 11.44 -1.707 11.049 -2.098C10.657 -2.508 10.326 -2.871 10.054 -3.188C9.785 -3.505 9.574 -3.776 9.424 -4C8.977 -4.242 8.614 -4.484 8.335 -4.725C8.055 -4.967 7.794 -5.206 7.552 -5.439C7.309 -5.672 7.047 -5.914 6.768 -6.167C6.489 -6.42 6.116 -6.686 5.65 -6.965C5.426 -6.834 5.287 -6.74 5.231 -6.685C5.231 -5.585 5.147 -4.661 4.98 -3.916C4.98 -3.765 4.983 -3.564 4.991 -3.311C5 -3.061 5.014 -2.801 5.034 -2.532C5.054 -2.262 5.067 -2.011 5.075 -1.778C5.084 -1.545 5.089 -1.381 5.089 -1.286C5.089 -0.802 5.033 -0.364 4.922 0.029C4.55 0.252 4.149 0.364 3.719 0.364C3.065 0.364 2.656 0.113 2.488 -0.39C2.471 -0.559 2.453 -0.872 2.433 -1.33C2.413 -1.786 2.395 -2.397 2.379 -3.162C2.415 -3.235 2.442 -3.433 2.459 -3.759C2.478 -4.087 2.497 -4.432 2.517 -4.794C2.536 -5.158 2.55 -5.494 2.557 -5.803C2.566 -6.111 2.572 -6.293 2.572 -6.35C2.572 -6.386 2.566 -6.437 2.557 -6.503C2.55 -6.568 2.546 -6.638 2.546 -6.714C2.546 -6.825 2.555 -6.983 2.572 -7.187C2.591 -7.393 2.606 -7.604 2.616 -7.818C2.625 -8.031 2.638 -8.24 2.656 -8.444C2.675 -8.65 2.685 -8.809 2.685 -8.921L2.685 -9.286C2.721 -9.397 2.758 -9.615 2.794 -9.941C2.832 -10.269 2.861 -10.614 2.882 -10.976C2.901 -11.34 2.914 -11.662 2.922 -11.941C2.931 -12.223 2.936 -12.372 2.936 -12.389L3.133 -14.907C3.432 -15.541 3.86 -15.857 4.419 -15.857C4.773 -15.857 5.095 -15.735 5.384 -15.493C5.673 -15.253 5.818 -14.983 5.818 -14.684C5.575 -13.807 5.444 -12.903 5.428 -11.971C5.444 -11.895 5.453 -11.807 5.453 -11.705C5.453 -11.603 5.453 -11.477 5.453 -11.329C5.453 -11.159 5.453 -10.958 5.453 -10.725C5.453 -10.493 5.435 -10.237 5.399 -9.956C6.069 -10.553 6.772 -11.085 7.508 -11.552C8.246 -12.018 8.82 -12.362 9.231 -12.586C9.546 -12.754 9.9 -12.934 10.291 -13.129C10.685 -13.326 11.104 -13.517 11.552 -13.705L11.635 -13.705C11.914 -13.705 12.198 -13.564 12.488 -13.286C12.776 -13.006 12.921 -12.679 12.921 -12.306C12.921 -12.065 12.838 -11.856 12.67 -11.679C12.502 -11.501 12.274 -11.338 11.985 -11.187C11.695 -11.039 11.364 -10.881 10.991 -10.714C10.619 -10.546 10.227 -10.359 9.818 -10.153C9.555 -9.985 9.251 -9.775 8.907 -9.522C8.562 -9.272 8.176 -8.98 7.748 -8.645C7.896 -8.53 8.059 -8.394 8.237 -8.237C8.413 -8.078 8.627 -7.891 8.878 -7.676C9.13 -7.462 9.429 -7.21 9.774 -6.921C10.121 -6.632 10.546 -6.31 11.049 -5.956C11.291 -5.732 11.589 -5.443 11.941 -5.089C12.296 -4.737 12.627 -4.369 12.936 -3.985C13.244 -3.604 13.51 -3.236 13.734 -2.882C13.957 -2.526 14.069 -2.238 14.069 -2.015ZM14.069 -2.015"/></g></g></g><g fill="rgb(7.839966%, 12.159729%, 20.779419%)" fill-opacity="1"><g transform="translate(473.13579, 222.913404)"><g><path d="M11.606 -1.118C11.011 -0.521 10.339 -0.013 9.592 0.404C8.846 0.824 8.092 1.035 7.329 1.035C6.639 1.035 5.753 0.923 4.67 0.699C4.299 0.456 3.925 0.162 3.552 -0.182C3.18 -0.526 2.845 -0.908 2.546 -1.326C2.248 -1.746 2.004 -2.202 1.818 -2.696C1.63 -3.191 1.537 -3.699 1.537 -4.222C1.537 -4.372 1.546 -4.573 1.566 -4.823C1.586 -5.075 1.608 -5.327 1.636 -5.577C1.665 -5.83 1.688 -6.049 1.705 -6.237C1.724 -6.423 1.734 -6.517 1.734 -6.517C2.107 -7.115 2.504 -7.706 2.922 -8.291C3.341 -8.879 3.934 -9.397 4.699 -9.847C5.911 -10.106 6.788 -10.236 7.329 -10.236C7.608 -10.236 7.85 -10.222 8.054 -10.193C8.26 -10.165 8.461 -10.11 8.655 -10.025C8.852 -9.942 9.047 -9.818 9.242 -9.65C9.439 -9.482 9.668 -9.267 9.93 -9.005C10.229 -8.689 10.466 -8.475 10.641 -8.364C10.818 -8.252 10.907 -8.149 10.907 -8.054C10.907 -6.34 10.376 -5.175 9.315 -4.561C8.849 -4.391 8.242 -4.208 7.497 -4.011C6.751 -3.816 5.735 -3.636 4.448 -3.468C4.708 -2.759 5.051 -2.227 5.479 -1.872C5.909 -1.52 6.394 -1.344 6.936 -1.344C7.737 -1.344 8.744 -1.819 9.956 -2.769C10.143 -2.936 10.376 -3.02 10.655 -3.02C10.954 -3.02 11.22 -2.908 11.453 -2.685C11.686 -2.461 11.803 -2.182 11.803 -1.847C11.803 -1.604 11.737 -1.361 11.606 -1.118ZM8.448 -7.104C8.093 -7.681 7.673 -7.971 7.187 -7.971C6.983 -7.971 6.759 -7.942 6.517 -7.887C6.274 -7.83 6.026 -7.752 5.774 -7.65C5.524 -7.548 5.29 -7.421 5.075 -7.271C4.861 -7.123 4.689 -6.945 4.561 -6.739L4.28 -5.901C4.914 -5.957 5.473 -6.003 5.956 -6.04C6.442 -6.078 6.861 -6.135 7.217 -6.207C7.571 -6.282 7.85 -6.386 8.054 -6.517C8.26 -6.648 8.391 -6.843 8.448 -7.104ZM8.448 -7.104"/></g></g></g><g fill="rgb(7.839966%, 12.159729%, 20.779419%)" fill-opacity="1"><g transform="translate(530.48373, 222.913404)"><g><path d="M11.606 -1.118C11.011 -0.521 10.339 -0.013 9.592 0.404C8.846 0.824 8.092 1.035 7.329 1.035C6.639 1.035 5.753 0.923 4.67 0.699C4.299 0.456 3.925 0.162 3.552 -0.182C3.18 -0.526 2.845 -0.908 2.546 -1.326C2.248 -1.746 2.004 -2.202 1.818 -2.696C1.63 -3.191 1.537 -3.699 1.537 -4.222C1.537 -4.372 1.546 -4.573 1.566 -4.823C1.586 -5.075 1.608 -5.327 1.636 -5.577C1.665 -5.83 1.688 -6.049 1.705 -6.237C1.724 -6.423 1.734 -6.517 1.734 -6.517C2.107 -7.115 2.504 -7.706 2.922 -8.291C3.341 -8.879 3.934 -9.397 4.699 -9.847C5.911 -10.106 6.788 -10.236 7.329 -10.236C7.608 -10.236 7.85 -10.222 8.054 -10.193C8.26 -10.165 8.461 -10.11 8.655 -10.025C8.852 -9.942 9.047 -9.818 9.242 -9.65C9.439 -9.482 9.668 -9.267 9.93 -9.005C10.229 -8.689 10.466 -8.475 10.641 -8.364C10.818 -8.252 10.907 -8.149 10.907 -8.054C10.907 -6.34 10.376 -5.175 9.315 -4.561C8.849 -4.391 8.242 -4.208 7.497 -4.011C6.751 -3.816 5.735 -3.636 4.448 -3.468C4.708 -2.759 5.051 -2.227 5.479 -1.872C5.909 -1.52 6.394 -1.344 6.936 -1.344C7.737 -1.344 8.744 -1.819 9.956 -2.769C10.143 -2.936 10.376 -3.02 10.655 -3.02C10.954 -3.02 11.22 -2.908 11.453 -2.685C11.686 -2.461 11.803 -2.182 11.803 -1.847C11.803 -1.604 11.737 -1.361 11.606 -1.118ZM8.448 -7.104C8.093 -7.681 7.673 -7.971 7.187 -7.971C6.983 -7.971 6.759 -7.942 6.517 -7.887C6.274 -7.83 6.026 -7.752 5.774 -7.65C5.524 -7.548 5.29 -7.421 5.075 -7.271C4.861 -7.123 4.689 -6.945 4.561 -6.739L4.28 -5.901C4.914 -5.957 5.473 -6.003 5.956 -6.04C6.442 -6.078 6.861 -6.135 7.217 -6.207C7.571 -6.282 7.85 -6.386 8.054 -6.517C8.26 -6.648 8.391 -6.843 8.448 -7.104ZM8.448 -7.104"/></g></g></g><g fill="rgb(7.839966%, 12.159729%, 20.779419%)" fill-opacity="1"><g transform="translate(587.83167, 222.913404)"><g><path d="M11.468 -5.734L11.468 -5.566C11.448 -5.268 11.415 -4.978 11.369 -4.699C11.323 -4.42 11.235 -4.14 11.103 -3.861L10.546 -2.656C10.395 -2.452 10.161 -2.228 9.843 -1.985C9.527 -1.742 9.182 -1.517 8.808 -1.311C8.437 -1.107 8.064 -0.934 7.69 -0.794C7.319 -0.656 7.011 -0.587 6.768 -0.587L6.488 -0.587C6.395 -0.587 6.269 -0.572 6.109 -0.543C5.951 -0.515 5.793 -0.483 5.636 -0.444C5.477 -0.408 5.333 -0.372 5.202 -0.335C5.071 -0.299 4.977 -0.281 4.922 -0.281C4.922 -0.001 4.916 0.184 4.907 0.277C4.9 0.372 4.891 0.507 4.881 0.685C4.871 0.862 4.861 1.156 4.852 1.566C4.842 1.976 4.838 2.648 4.838 3.581C4.838 3.841 4.81 4.147 4.754 4.503C4.697 4.857 4.624 5.277 4.532 5.763C4.289 5.967 3.972 6.069 3.581 6.069C3.207 6.069 2.926 5.985 2.739 5.818C2.555 5.65 2.43 5.444 2.364 5.202C2.299 4.959 2.27 4.721 2.28 4.488C2.29 4.255 2.295 4.064 2.295 3.916C2.295 3.561 2.313 3.276 2.35 3.06C2.386 2.846 2.404 2.554 2.404 2.182C2.404 1.975 2.399 1.756 2.39 1.523C2.382 1.29 2.379 1.033 2.379 0.754C2.379 0.326 2.392 -0.073 2.419 -0.444C2.448 -0.818 2.481 -1.182 2.517 -1.537C2.442 -1.911 2.404 -2.555 2.404 -3.468C2.404 -4.289 2.452 -4.96 2.546 -5.483C2.434 -6.08 2.354 -6.597 2.306 -7.034C2.259 -7.472 2.237 -7.821 2.237 -8.084C2.237 -8.513 2.339 -8.83 2.543 -9.034C2.749 -9.238 3.095 -9.34 3.581 -9.34C3.916 -9.34 4.177 -9.276 4.364 -9.147L4.645 -8.812C4.98 -8.996 5.389 -9.149 5.872 -9.271C6.358 -9.392 6.871 -9.453 7.413 -9.453C8.681 -9.453 9.665 -9.149 10.364 -8.543C11.063 -7.938 11.431 -7.002 11.468 -5.734ZM8.867 -5.034C8.922 -5.333 8.951 -5.585 8.951 -5.789C8.951 -6.126 8.834 -6.41 8.601 -6.641C8.368 -6.874 8.008 -6.991 7.523 -6.991L7.246 -6.991C6.871 -6.991 6.628 -7.01 6.517 -7.049C6.051 -6.993 5.538 -6.714 4.98 -6.211C4.98 -6.172 4.988 -6.059 5.005 -5.872C5.024 -5.687 5.034 -5.426 5.034 -5.089C5.034 -4.661 5.006 -4.299 4.951 -4C4.894 -3.701 4.867 -3.43 4.867 -3.188C4.867 -3.095 4.867 -2.993 4.867 -2.882C4.867 -2.769 4.894 -2.714 4.951 -2.714C5.006 -2.714 5.108 -2.727 5.257 -2.754C5.407 -2.783 5.556 -2.82 5.705 -2.867C5.855 -2.912 6 -2.949 6.138 -2.976C6.279 -3.005 6.368 -3.02 6.404 -3.02C6.515 -3.02 6.65 -3.047 6.809 -3.104C6.969 -3.159 7.127 -3.215 7.286 -3.271C7.443 -3.327 7.583 -3.382 7.705 -3.439C7.826 -3.494 7.914 -3.523 7.971 -3.523C8.42 -3.877 8.718 -4.381 8.867 -5.034ZM8.867 -5.034"/></g></g></g><g fill="rgb(7.839966%, 12.159729%, 20.779419%)" fill-opacity="1"><g transform="translate(643.619925, 222.913404)"><g/></g></g><g fill="rgb(7.839966%, 12.159729%, 20.779419%)" fill-opacity="1"><g transform="translate(694.009334, 222.913404)"><g><path d="M7.552 -0.645C7.495 -0.55 7.392 -0.47 7.242 -0.404C7.094 -0.339 6.941 -0.291 6.783 -0.262C6.625 -0.235 6.475 -0.212 6.335 -0.193C6.194 -0.176 6.115 -0.158 6.098 -0.138C5.855 -0.121 5.575 -0.103 5.257 -0.084C4.941 -0.064 4.568 -0.036 4.138 0C4.082 -0.019 4.008 -0.029 3.916 -0.029C3.841 -0.029 3.728 -0.011 3.577 0.026C3.429 0.064 3.309 0.084 3.217 0.084C2.602 0.084 2.295 -0.27 2.295 -0.98C2.295 -1.519 2.463 -1.892 2.798 -2.098L3.971 -2.488C3.971 -2.993 4.026 -3.712 4.138 -4.645C4.121 -4.737 4.107 -4.843 4.098 -4.965C4.088 -5.086 4.084 -5.221 4.084 -5.37C4.084 -6.023 4.102 -6.526 4.138 -6.881C4.177 -7.236 4.197 -7.431 4.197 -7.468C4.197 -7.635 4.191 -7.826 4.182 -8.04C4.172 -8.256 4.153 -8.544 4.124 -8.907C4.096 -9.271 4.06 -9.723 4.014 -10.262C3.968 -10.803 3.917 -11.466 3.861 -12.251L2.882 -12.389C2.602 -12.838 2.463 -13.24 2.463 -13.595C2.463 -13.799 2.49 -13.97 2.546 -14.109C2.602 -14.249 2.708 -14.366 2.867 -14.459C3.025 -14.553 3.248 -14.619 3.537 -14.655C3.826 -14.694 4.204 -14.714 4.67 -14.714C4.912 -14.714 5.136 -14.694 5.34 -14.655C5.546 -14.619 5.724 -14.582 5.872 -14.546C6.321 -14.546 6.686 -14.531 6.965 -14.502C7.244 -14.475 7.453 -14.419 7.592 -14.335C7.732 -14.249 7.826 -14.136 7.872 -13.996C7.921 -13.858 7.945 -13.676 7.945 -13.453C7.945 -12.987 7.739 -12.558 7.329 -12.167C7.254 -12.147 6.918 -12.138 6.32 -12.138C6.34 -11.858 6.358 -11.615 6.375 -11.409C6.394 -11.205 6.417 -10.94 6.444 -10.612C6.473 -10.286 6.497 -9.858 6.517 -9.326C6.536 -8.796 6.554 -8.074 6.572 -7.162C6.572 -6.732 6.566 -6.362 6.557 -6.054C6.55 -5.748 6.546 -5.473 6.546 -5.231C6.546 -4.745 6.554 -4.474 6.572 -4.419L6.462 -2.572C7.002 -2.499 7.37 -2.369 7.566 -2.182C7.763 -1.994 7.861 -1.716 7.861 -1.344C7.861 -1.082 7.758 -0.849 7.552 -0.645ZM7.552 -0.645"/></g></g></g><g fill="rgb(7.839966%, 12.159729%, 20.779419%)" fill-opacity="1"><g transform="translate(740.199623, 222.913404)"><g><path d="M8.812 -10.546C9.016 -10.379 9.118 -10.07 9.118 -9.621C9.118 -8.799 8.81 -8.39 8.196 -8.39L8.084 -8.39C7.804 -8.372 7.477 -8.349 7.104 -8.32C6.732 -8.293 6.313 -8.252 5.847 -8.196C5.808 -7.898 5.77 -7.501 5.734 -7.005C5.697 -6.512 5.679 -5.921 5.679 -5.231C5.679 -5.175 5.683 -5.119 5.69 -5.064C5.699 -5.007 5.705 -4.942 5.705 -4.867L5.705 -3.581C5.705 -3.282 5.756 -3.044 5.858 -2.867C5.962 -2.689 6.088 -2.563 6.237 -2.488L7.02 -2.237C7.636 -2.033 7.945 -1.659 7.945 -1.118C7.945 -0.802 7.819 -0.523 7.566 -0.281C7.313 -0.037 6.992 0.084 6.601 0.084C6.489 0.084 6.297 0.051 6.025 -0.015C5.756 -0.08 5.476 -0.168 5.187 -0.281C4.898 -0.392 4.627 -0.532 4.375 -0.699C4.125 -0.867 3.953 -1.054 3.861 -1.26C3.655 -1.688 3.486 -2.139 3.355 -2.616C3.226 -3.091 3.162 -3.59 3.162 -4.113C3.162 -4.69 3.17 -5.1 3.188 -5.34C3.207 -5.583 3.225 -5.798 3.242 -5.985C3.261 -6.172 3.28 -6.395 3.3 -6.656C3.32 -6.918 3.33 -7.348 3.33 -7.945C2.974 -7.906 2.453 -7.793 1.763 -7.606C1.352 -7.606 1.003 -7.713 0.714 -7.927C0.424 -8.143 0.281 -8.428 0.281 -8.783C0.281 -9.043 0.359 -9.284 0.517 -9.508C0.675 -9.734 1.006 -9.93 1.512 -10.098C1.679 -10.154 1.832 -10.19 1.971 -10.207C2.111 -10.226 2.251 -10.246 2.39 -10.266C2.53 -10.285 2.685 -10.298 2.852 -10.306C3.02 -10.315 3.225 -10.339 3.468 -10.379C3.487 -10.842 3.52 -11.368 3.566 -11.956C3.612 -12.543 3.696 -13.089 3.818 -13.592C3.939 -14.096 4.116 -14.521 4.35 -14.867C4.583 -15.211 4.894 -15.384 5.286 -15.384C5.958 -15.384 6.369 -15.076 6.517 -14.462C6.517 -14.442 6.493 -14.317 6.448 -14.083C6.401 -13.85 6.35 -13.593 6.295 -13.315C6.238 -13.035 6.187 -12.765 6.138 -12.502C6.092 -12.242 6.069 -12.074 6.069 -12L5.985 -10.63C6.116 -10.646 6.238 -10.66 6.35 -10.67C6.461 -10.679 6.583 -10.685 6.714 -10.685L6.965 -10.685C7.096 -10.685 7.217 -10.689 7.329 -10.699C7.441 -10.708 7.543 -10.714 7.635 -10.714C8.194 -10.714 8.586 -10.657 8.812 -10.546ZM8.812 -10.546"/></g></g></g><path fill="rgb(88.238525%, 94.509888%, 89.408875%)" d="M75.061 127.032L202.422 127.032C206.034 127.032 208.962 129.961 208.962 133.573L208.962 146.656C208.962 148.391 208.273 150.055 207.047 151.282C205.82 152.508 204.157 153.197 202.422 153.197L75.061 153.197C71.449 153.197 68.521 150.269 68.521 146.656L68.521 133.573C68.521 129.961 71.449 127.032 75.061 127.032" fill-opacity="1" fill-rule="nonzero"/><g fill="rgb(7.839966%, 12.159729%, 20.779419%)" fill-opacity="1"><g transform="translate(325.906996, 621.598826)"><g><path d="M9.38 -1.344C9.38 -1.133 9.28 -0.942 9.082 -0.772C8.882 -0.605 8.677 -0.521 8.466 -0.521C8.402 -0.521 8.359 -0.517 8.335 -0.51C8.31 -0.505 8.27 -0.525 8.215 -0.568C8.158 -0.612 8.069 -0.696 7.945 -0.82C7.821 -0.944 7.628 -1.137 7.366 -1.399C7.105 -1.673 6.885 -1.916 6.703 -2.127C6.523 -2.339 6.383 -2.518 6.284 -2.667C5.985 -2.829 5.742 -2.991 5.555 -3.151C5.371 -3.313 5.197 -3.473 5.034 -3.628C4.874 -3.783 4.7 -3.945 4.514 -4.113C4.326 -4.28 4.077 -4.457 3.767 -4.645C3.618 -4.557 3.524 -4.493 3.486 -4.455C3.486 -3.721 3.43 -3.107 3.319 -2.612C3.319 -2.512 3.32 -2.377 3.326 -2.208C3.333 -2.04 3.342 -1.866 3.355 -1.687C3.37 -1.506 3.379 -1.339 3.384 -1.184C3.392 -1.028 3.395 -0.919 3.395 -0.856C3.395 -0.533 3.357 -0.241 3.282 0.018C3.035 0.168 2.767 0.244 2.481 0.244C2.045 0.244 1.772 0.075 1.661 -0.262C1.647 -0.373 1.633 -0.581 1.621 -0.885C1.608 -1.191 1.596 -1.597 1.585 -2.106C1.608 -2.157 1.627 -2.29 1.639 -2.506C1.654 -2.725 1.667 -2.955 1.679 -3.198C1.691 -3.441 1.699 -3.665 1.705 -3.869C1.712 -4.075 1.716 -4.197 1.716 -4.233C1.716 -4.257 1.712 -4.291 1.705 -4.335C1.699 -4.379 1.698 -4.426 1.698 -4.477C1.698 -4.55 1.703 -4.654 1.716 -4.79C1.728 -4.929 1.736 -5.069 1.741 -5.213C1.749 -5.356 1.758 -5.495 1.77 -5.632C1.782 -5.768 1.789 -5.873 1.789 -5.949L1.789 -6.193C1.815 -6.266 1.841 -6.41 1.865 -6.626C1.889 -6.845 1.907 -7.075 1.92 -7.319C1.932 -7.561 1.94 -7.776 1.945 -7.963C1.953 -8.15 1.956 -8.249 1.956 -8.262L2.087 -9.938C2.286 -10.36 2.573 -10.572 2.947 -10.572C3.182 -10.572 3.396 -10.49 3.588 -10.328C3.782 -10.167 3.88 -9.987 3.88 -9.788C3.717 -9.206 3.629 -8.603 3.617 -7.982C3.629 -7.931 3.636 -7.87 3.636 -7.803C3.636 -7.735 3.636 -7.651 3.636 -7.552C3.636 -7.44 3.636 -7.306 3.636 -7.151C3.636 -6.995 3.623 -6.824 3.599 -6.637C4.045 -7.035 4.514 -7.39 5.005 -7.701C5.498 -8.012 5.881 -8.242 6.153 -8.393C6.364 -8.504 6.599 -8.625 6.86 -8.754C7.122 -8.885 7.402 -9.012 7.701 -9.136L7.759 -9.136C7.943 -9.136 8.132 -9.043 8.324 -8.856C8.518 -8.671 8.615 -8.453 8.615 -8.204C8.615 -8.043 8.559 -7.903 8.448 -7.785C8.336 -7.668 8.183 -7.56 7.989 -7.461C7.797 -7.36 7.575 -7.255 7.326 -7.144C7.078 -7.032 6.818 -6.907 6.546 -6.768C6.371 -6.656 6.168 -6.517 5.938 -6.35C5.709 -6.182 5.452 -5.986 5.166 -5.763C5.265 -5.687 5.373 -5.596 5.49 -5.49C5.608 -5.385 5.752 -5.261 5.92 -5.118C6.087 -4.974 6.286 -4.807 6.517 -4.616C6.748 -4.423 7.031 -4.208 7.366 -3.971C7.528 -3.822 7.727 -3.629 7.963 -3.392C8.198 -3.156 8.419 -2.911 8.623 -2.656C8.829 -2.402 9.006 -2.157 9.155 -1.92C9.305 -1.684 9.38 -1.492 9.38 -1.344ZM9.38 -1.344"/></g></g></g><g fill="rgb(7.839966%, 12.159729%, 20.779419%)" fill-opacity="1"><g transform="translate(369.013718, 621.598826)"><g><path d="M7.737 -0.747C7.341 -0.348 6.894 -0.009 6.397 0.27C5.899 0.548 5.395 0.689 4.885 0.689C4.426 0.689 3.836 0.614 3.115 0.466C2.864 0.303 2.616 0.107 2.368 -0.12C2.12 -0.351 1.896 -0.606 1.698 -0.885C1.498 -1.164 1.337 -1.469 1.213 -1.8C1.089 -2.129 1.027 -2.468 1.027 -2.816C1.027 -2.915 1.033 -3.049 1.046 -3.217C1.057 -3.384 1.072 -3.552 1.089 -3.719C1.108 -3.887 1.124 -4.033 1.137 -4.157C1.148 -4.282 1.155 -4.346 1.155 -4.346C1.404 -4.744 1.669 -5.138 1.949 -5.53C2.228 -5.921 2.623 -6.266 3.133 -6.564C3.942 -6.739 4.525 -6.827 4.885 -6.827C5.072 -6.827 5.233 -6.817 5.37 -6.798C5.508 -6.778 5.641 -6.74 5.77 -6.685C5.901 -6.628 6.033 -6.544 6.164 -6.433C6.295 -6.321 6.446 -6.178 6.619 -6.003C6.818 -5.792 6.976 -5.648 7.093 -5.574C7.211 -5.501 7.271 -5.432 7.271 -5.37C7.271 -4.226 6.918 -3.448 6.211 -3.038C5.9 -2.926 5.495 -2.805 4.998 -2.674C4.5 -2.545 3.822 -2.424 2.965 -2.313C3.14 -1.84 3.37 -1.484 3.654 -1.25C3.94 -1.014 4.264 -0.896 4.626 -0.896C5.16 -0.896 5.83 -1.213 6.637 -1.847C6.763 -1.958 6.919 -2.015 7.104 -2.015C7.302 -2.015 7.48 -1.939 7.635 -1.789C7.79 -1.64 7.869 -1.454 7.869 -1.231C7.869 -1.068 7.825 -0.907 7.737 -0.747ZM5.632 -4.736C5.396 -5.122 5.116 -5.315 4.794 -5.315C4.656 -5.315 4.504 -5.295 4.342 -5.257C4.182 -5.22 4.018 -5.167 3.851 -5.1C3.683 -5.032 3.527 -4.948 3.384 -4.849C3.24 -4.748 3.126 -4.631 3.038 -4.495L2.852 -3.934C3.275 -3.971 3.647 -4.001 3.971 -4.025C4.293 -4.052 4.573 -4.089 4.809 -4.138C5.046 -4.189 5.233 -4.259 5.37 -4.346C5.508 -4.433 5.595 -4.563 5.632 -4.736ZM5.632 -4.736"/></g></g></g><g fill="rgb(7.839966%, 12.159729%, 20.779419%)" fill-opacity="1"><g transform="translate(407.241948, 621.598826)"><g><path d="M7.737 -0.747C7.341 -0.348 6.894 -0.009 6.397 0.27C5.899 0.548 5.395 0.689 4.885 0.689C4.426 0.689 3.836 0.614 3.115 0.466C2.864 0.303 2.616 0.107 2.368 -0.12C2.12 -0.351 1.896 -0.606 1.698 -0.885C1.498 -1.164 1.337 -1.469 1.213 -1.8C1.089 -2.129 1.027 -2.468 1.027 -2.816C1.027 -2.915 1.033 -3.049 1.046 -3.217C1.057 -3.384 1.072 -3.552 1.089 -3.719C1.108 -3.887 1.124 -4.033 1.137 -4.157C1.148 -4.282 1.155 -4.346 1.155 -4.346C1.404 -4.744 1.669 -5.138 1.949 -5.53C2.228 -5.921 2.623 -6.266 3.133 -6.564C3.942 -6.739 4.525 -6.827 4.885 -6.827C5.072 -6.827 5.233 -6.817 5.37 -6.798C5.508 -6.778 5.641 -6.74 5.77 -6.685C5.901 -6.628 6.033 -6.544 6.164 -6.433C6.295 -6.321 6.446 -6.178 6.619 -6.003C6.818 -5.792 6.976 -5.648 7.093 -5.574C7.211 -5.501 7.271 -5.432 7.271 -5.37C7.271 -4.226 6.918 -3.448 6.211 -3.038C5.9 -2.926 5.495 -2.805 4.998 -2.674C4.5 -2.545 3.822 -2.424 2.965 -2.313C3.14 -1.84 3.37 -1.484 3.654 -1.25C3.94 -1.014 4.264 -0.896 4.626 -0.896C5.16 -0.896 5.83 -1.213 6.637 -1.847C6.763 -1.958 6.919 -2.015 7.104 -2.015C7.302 -2.015 7.48 -1.939 7.635 -1.789C7.79 -1.64 7.869 -1.454 7.869 -1.231C7.869 -1.068 7.825 -0.907 7.737 -0.747ZM5.632 -4.736C5.396 -5.122 5.116 -5.315 4.794 -5.315C4.656 -5.315 4.504 -5.295 4.342 -5.257C4.182 -5.22 4.018 -5.167 3.851 -5.1C3.683 -5.032 3.527 -4.948 3.384 -4.849C3.24 -4.748 3.126 -4.631 3.038 -4.495L2.852 -3.934C3.275 -3.971 3.647 -4.001 3.971 -4.025C4.293 -4.052 4.573 -4.089 4.809 -4.138C5.046 -4.189 5.233 -4.259 5.37 -4.346C5.508 -4.433 5.595 -4.563 5.632 -4.736ZM5.632 -4.736"/></g></g></g><g fill="rgb(7.839966%, 12.159729%, 20.779419%)" fill-opacity="1"><g transform="translate(445.470178, 621.598826)"><g><path d="M7.646 -3.821L7.646 -3.712C7.634 -3.513 7.612 -3.32 7.581 -3.133C7.549 -2.945 7.49 -2.759 7.402 -2.572L7.031 -1.77C6.931 -1.634 6.776 -1.484 6.564 -1.322C6.353 -1.162 6.122 -1.013 5.872 -0.874C5.625 -0.738 5.375 -0.623 5.126 -0.528C4.878 -0.435 4.674 -0.39 4.514 -0.39L4.328 -0.39C4.264 -0.39 4.179 -0.38 4.073 -0.361C3.968 -0.343 3.862 -0.322 3.756 -0.299C3.651 -0.274 3.555 -0.249 3.468 -0.222C3.381 -0.198 3.319 -0.186 3.282 -0.186C3.282 0.001 3.279 0.125 3.271 0.186C3.266 0.249 3.26 0.339 3.253 0.455C3.248 0.574 3.242 0.77 3.235 1.042C3.229 1.316 3.228 1.764 3.228 2.386C3.228 2.561 3.208 2.766 3.169 3.002C3.133 3.237 3.083 3.517 3.02 3.843C2.86 3.979 2.648 4.047 2.386 4.047C2.138 4.047 1.951 3.991 1.825 3.88C1.701 3.768 1.617 3.63 1.574 3.468C1.532 3.308 1.514 3.149 1.519 2.994C1.526 2.839 1.53 2.711 1.53 2.612C1.53 2.373 1.542 2.183 1.566 2.04C1.59 1.899 1.603 1.703 1.603 1.454C1.603 1.317 1.599 1.171 1.592 1.016C1.586 0.861 1.585 0.689 1.585 0.503C1.585 0.216 1.593 -0.051 1.61 -0.299C1.629 -0.546 1.652 -0.789 1.679 -1.027C1.628 -1.275 1.603 -1.703 1.603 -2.313C1.603 -2.86 1.634 -3.306 1.698 -3.654C1.622 -4.052 1.568 -4.397 1.537 -4.688C1.508 -4.982 1.494 -5.215 1.494 -5.388C1.494 -5.674 1.561 -5.885 1.698 -6.022C1.833 -6.16 2.063 -6.229 2.386 -6.229C2.609 -6.229 2.784 -6.186 2.911 -6.098L3.096 -5.872C3.32 -5.998 3.593 -6.102 3.916 -6.182C4.238 -6.262 4.581 -6.302 4.943 -6.302C5.789 -6.302 6.444 -6.099 6.911 -5.694C7.377 -5.29 7.622 -4.667 7.646 -3.821ZM5.912 -3.355C5.949 -3.554 5.967 -3.723 5.967 -3.861C5.967 -4.085 5.889 -4.274 5.734 -4.43C5.578 -4.585 5.339 -4.663 5.016 -4.663L4.83 -4.663C4.58 -4.663 4.419 -4.675 4.346 -4.699C4.034 -4.663 3.692 -4.475 3.319 -4.138C3.319 -4.114 3.324 -4.04 3.337 -3.916C3.349 -3.792 3.355 -3.618 3.355 -3.395C3.355 -3.108 3.337 -2.865 3.3 -2.667C3.264 -2.467 3.246 -2.288 3.246 -2.127C3.246 -2.064 3.246 -1.994 3.246 -1.92C3.246 -1.847 3.264 -1.811 3.3 -1.811C3.337 -1.811 3.404 -1.819 3.504 -1.836C3.604 -1.855 3.703 -1.88 3.803 -1.909C3.902 -1.94 3.998 -1.965 4.091 -1.985C4.186 -2.004 4.245 -2.015 4.269 -2.015C4.344 -2.015 4.434 -2.033 4.539 -2.069C4.646 -2.107 4.751 -2.146 4.856 -2.182C4.963 -2.219 5.056 -2.255 5.136 -2.291C5.218 -2.33 5.279 -2.35 5.315 -2.35C5.614 -2.585 5.812 -2.92 5.912 -3.355ZM5.912 -3.355"/></g></g></g><g fill="rgb(7.839966%, 12.159729%, 20.779419%)" fill-opacity="1"><g transform="translate(482.658725, 621.598826)"><g/></g></g><g fill="rgb(7.839966%, 12.159729%, 20.779419%)" fill-opacity="1"><g transform="translate(516.248383, 621.598826)"><g><path d="M5.034 -0.43C4.998 -0.366 4.93 -0.313 4.83 -0.27C4.73 -0.226 4.627 -0.194 4.521 -0.175C4.416 -0.158 4.317 -0.143 4.222 -0.131C4.129 -0.118 4.077 -0.107 4.065 -0.095C3.902 -0.08 3.716 -0.066 3.504 -0.055C3.293 -0.042 3.045 -0.024 2.761 0C2.722 -0.012 2.672 -0.018 2.612 -0.018C2.561 -0.018 2.485 -0.005 2.386 0.018C2.286 0.042 2.206 0.055 2.146 0.055C1.735 0.055 1.53 -0.18 1.53 -0.652C1.53 -1.014 1.641 -1.262 1.865 -1.399L2.648 -1.661C2.648 -1.996 2.686 -2.474 2.761 -3.096C2.747 -3.157 2.736 -3.228 2.729 -3.308C2.723 -3.39 2.721 -3.481 2.721 -3.581C2.721 -4.015 2.733 -4.351 2.758 -4.586C2.784 -4.824 2.798 -4.955 2.798 -4.98C2.798 -5.091 2.794 -5.218 2.787 -5.362C2.781 -5.505 2.769 -5.697 2.75 -5.938C2.73 -6.18 2.705 -6.482 2.674 -6.841C2.645 -7.203 2.61 -7.645 2.572 -8.167L1.92 -8.262C1.732 -8.561 1.639 -8.828 1.639 -9.063C1.639 -9.199 1.658 -9.313 1.694 -9.406C1.732 -9.501 1.804 -9.578 1.909 -9.639C2.015 -9.702 2.165 -9.746 2.357 -9.77C2.551 -9.797 2.803 -9.81 3.115 -9.81C3.275 -9.81 3.422 -9.797 3.559 -9.77C3.698 -9.746 3.816 -9.721 3.916 -9.697C4.215 -9.697 4.456 -9.687 4.641 -9.668C4.828 -9.651 4.967 -9.614 5.06 -9.555C5.155 -9.499 5.218 -9.425 5.249 -9.333C5.28 -9.24 5.297 -9.119 5.297 -8.969C5.297 -8.657 5.159 -8.372 4.885 -8.113C4.836 -8.1 4.613 -8.094 4.215 -8.094C4.227 -7.907 4.238 -7.745 4.251 -7.606C4.263 -7.47 4.279 -7.293 4.299 -7.074C4.318 -6.858 4.333 -6.573 4.346 -6.218C4.358 -5.863 4.37 -5.381 4.382 -4.772C4.382 -4.488 4.379 -4.242 4.371 -4.036C4.366 -3.832 4.364 -3.648 4.364 -3.486C4.364 -3.163 4.37 -2.984 4.382 -2.947L4.306 -1.716C4.667 -1.665 4.912 -1.577 5.042 -1.454C5.173 -1.33 5.238 -1.144 5.238 -0.896C5.238 -0.721 5.17 -0.566 5.034 -0.43ZM5.034 -0.43"/></g></g></g><g fill="rgb(7.839966%, 12.159729%, 20.779419%)" fill-opacity="1"><g transform="translate(547.038915, 621.598826)"><g><path d="M5.872 -7.031C6.011 -6.919 6.08 -6.714 6.08 -6.415C6.08 -5.869 5.874 -5.595 5.464 -5.595L5.388 -5.595C5.203 -5.583 4.985 -5.567 4.736 -5.548C4.488 -5.528 4.208 -5.501 3.898 -5.464C3.873 -5.265 3.848 -5 3.821 -4.67C3.797 -4.342 3.785 -3.947 3.785 -3.486C3.785 -3.45 3.787 -3.412 3.792 -3.373C3.8 -3.337 3.803 -3.294 3.803 -3.246L3.803 -2.386C3.803 -2.187 3.837 -2.027 3.905 -1.909C3.975 -1.792 4.06 -1.709 4.16 -1.661L4.681 -1.494C5.091 -1.355 5.297 -1.106 5.297 -0.747C5.297 -0.536 5.213 -0.348 5.045 -0.186C4.878 -0.026 4.663 0.055 4.401 0.055C4.325 0.055 4.198 0.034 4.018 -0.007C3.838 -0.051 3.651 -0.11 3.457 -0.186C3.265 -0.26 3.086 -0.354 2.918 -0.466C2.75 -0.577 2.635 -0.701 2.572 -0.838C2.435 -1.124 2.324 -1.425 2.237 -1.741C2.149 -2.059 2.106 -2.392 2.106 -2.739C2.106 -3.126 2.111 -3.399 2.124 -3.559C2.138 -3.721 2.151 -3.865 2.164 -3.989C2.176 -4.115 2.188 -4.264 2.2 -4.437C2.212 -4.612 2.219 -4.898 2.219 -5.297C1.983 -5.272 1.634 -5.197 1.173 -5.071C0.901 -5.071 0.668 -5.142 0.474 -5.286C0.281 -5.429 0.186 -5.618 0.186 -5.854C0.186 -6.029 0.238 -6.19 0.342 -6.339C0.449 -6.489 0.67 -6.62 1.005 -6.732C1.117 -6.768 1.219 -6.792 1.311 -6.805C1.406 -6.819 1.499 -6.832 1.592 -6.845C1.687 -6.857 1.79 -6.865 1.902 -6.87C2.013 -6.878 2.15 -6.893 2.313 -6.918C2.325 -7.228 2.346 -7.579 2.375 -7.971C2.406 -8.364 2.463 -8.728 2.543 -9.063C2.625 -9.399 2.744 -9.68 2.9 -9.909C3.055 -10.139 3.262 -10.255 3.523 -10.255C3.972 -10.255 4.246 -10.051 4.346 -9.643C4.346 -9.628 4.33 -9.543 4.299 -9.388C4.267 -9.232 4.231 -9.061 4.193 -8.874C4.157 -8.689 4.122 -8.51 4.091 -8.335C4.062 -8.162 4.047 -8.051 4.047 -8L3.989 -7.085C4.076 -7.097 4.157 -7.105 4.233 -7.111C4.308 -7.118 4.39 -7.122 4.477 -7.122L4.645 -7.122C4.729 -7.122 4.81 -7.125 4.885 -7.133C4.96 -7.14 5.028 -7.144 5.089 -7.144C5.462 -7.144 5.724 -7.105 5.872 -7.031ZM5.872 -7.031"/></g></g></g><g fill="rgb(7.839966%, 12.159729%, 20.779419%)" fill-opacity="1"><g transform="translate(574.790365, 621.598826)"><g/></g></g><g fill="rgb(7.839966%, 12.159729%, 20.779419%)" fill-opacity="1"><g transform="translate(608.380023, 621.598826)"><g><path d="M9.063 -2.517C9.024 -2.369 8.933 -2.189 8.79 -1.978C8.649 -1.767 8.473 -1.552 8.262 -1.333C8.051 -1.115 7.823 -0.918 7.581 -0.743C7.338 -0.57 7.105 -0.446 6.881 -0.372C6.235 -0.087 5.508 0.055 4.699 0.055C4.437 0.055 4.209 0.048 4.018 0.036C3.826 0.024 3.637 -0.012 3.45 -0.073C3.262 -0.136 3.076 -0.235 2.889 -0.372C2.704 -0.51 2.493 -0.709 2.255 -0.969C1.994 -1.243 1.79 -1.514 1.639 -1.781C1.491 -2.048 1.379 -2.306 1.304 -2.554C1.231 -2.803 1.181 -3.043 1.155 -3.271C1.13 -3.502 1.118 -3.71 1.118 -3.898C1.118 -4.308 1.168 -4.792 1.268 -5.351C1.367 -5.912 1.634 -6.595 2.069 -7.402C2.231 -7.701 2.355 -7.936 2.441 -8.109C2.528 -8.284 2.579 -8.402 2.594 -8.466L3.749 -9.176C4.147 -9.411 4.525 -9.601 4.885 -9.745C5.247 -9.888 5.645 -9.96 6.08 -9.96C6.204 -9.96 6.39 -9.96 6.637 -9.96C6.887 -9.96 7.133 -9.93 7.373 -9.872C7.615 -9.816 7.83 -9.716 8.018 -9.573C8.205 -9.432 8.298 -9.225 8.298 -8.951C8.298 -8.492 8.025 -8.224 7.479 -8.149C7.491 -8.149 7.453 -8.155 7.366 -8.167C7.278 -8.179 7.159 -8.191 7.009 -8.204C6.86 -8.216 6.693 -8.227 6.506 -8.24C6.321 -8.255 6.136 -8.262 5.949 -8.262C5.626 -8.262 5.299 -8.171 4.969 -7.989C4.641 -7.809 4.24 -7.502 3.767 -7.067C3.519 -6.544 3.335 -6.138 3.217 -5.847C3.097 -5.555 3.038 -5.36 3.038 -5.26C2.902 -5.01 2.834 -4.643 2.834 -4.16C2.834 -3.264 2.995 -2.619 3.319 -2.226C3.641 -1.834 4.084 -1.639 4.645 -1.639C5.003 -1.639 5.563 -1.739 6.32 -1.938C6.781 -2.212 7.18 -2.648 7.515 -3.246C7.727 -3.457 7.943 -3.563 8.167 -3.563C8.402 -3.563 8.614 -3.469 8.801 -3.282C8.988 -3.095 9.082 -2.883 9.082 -2.648C9.082 -2.624 9.078 -2.602 9.071 -2.583C9.065 -2.563 9.063 -2.541 9.063 -2.517ZM9.063 -2.517"/></g></g></g><g fill="rgb(7.839966%, 12.159729%, 20.779419%)" fill-opacity="1"><g transform="translate(652.126552, 621.598826)"><g><path d="M6.044 -0.466C5.881 -0.354 5.618 -0.245 5.257 -0.138C4.897 -0.034 4.524 0.056 4.138 0.131L3.377 -0.018C3.262 -0.055 3.078 -0.14 2.823 -0.277C2.57 -0.415 2.313 -0.624 2.051 -0.903C1.79 -1.182 1.561 -1.543 1.362 -1.985C1.163 -2.427 1.064 -2.965 1.064 -3.599C1.064 -3.822 1.116 -4.085 1.22 -4.39C1.327 -4.696 1.486 -4.982 1.698 -5.249C1.909 -5.516 2.172 -5.743 2.488 -5.931C2.806 -6.117 3.177 -6.211 3.599 -6.211C4.444 -6.211 5.209 -5.936 5.894 -5.388C6.489 -4.569 6.787 -3.662 6.787 -2.667C6.787 -1.933 6.539 -1.199 6.044 -0.466ZM5.129 -3.115C5.065 -3.6 4.912 -3.983 4.67 -4.262C4.427 -4.541 4.12 -4.681 3.749 -4.681C3.501 -4.681 3.268 -4.559 3.049 -4.317C2.831 -4.074 2.721 -3.723 2.721 -3.264C2.721 -3.076 2.745 -2.88 2.794 -2.674C2.845 -2.47 2.926 -2.284 3.038 -2.117C3.149 -1.949 3.293 -1.811 3.468 -1.705C3.643 -1.6 3.854 -1.548 4.102 -1.548C4.5 -1.548 4.773 -1.669 4.922 -1.913C5.072 -2.155 5.147 -2.456 5.147 -2.816C5.147 -2.864 5.144 -2.911 5.136 -2.954C5.131 -2.998 5.129 -3.051 5.129 -3.115ZM5.129 -3.115"/></g></g></g><g fill="rgb(7.839966%, 12.159729%, 20.779419%)" fill-opacity="1"><g transform="translate(685.876143, 621.598826)"><g><path d="M12.102 -1.064C12.102 -0.901 12.011 -0.766 11.832 -0.659C11.652 -0.555 11.457 -0.503 11.246 -0.503C10.995 -0.503 10.81 -0.583 10.692 -0.743C10.575 -0.905 10.491 -1.115 10.44 -1.37C10.391 -1.625 10.364 -1.907 10.357 -2.219C10.351 -2.529 10.343 -2.828 10.331 -3.115C10.307 -3.202 10.275 -3.326 10.236 -3.486C10.2 -3.648 10.169 -3.854 10.145 -4.102C9.81 -4.475 9.406 -4.663 8.932 -4.663C8.757 -4.663 8.583 -4.646 8.408 -4.616C8.235 -4.584 8.074 -4.514 7.923 -4.408C7.775 -4.303 7.639 -4.146 7.515 -3.934C7.391 -3.723 7.291 -3.437 7.217 -3.078C7.228 -3.014 7.235 -2.902 7.235 -2.739C7.235 -2.603 7.225 -2.438 7.206 -2.244C7.188 -2.052 7.167 -1.832 7.144 -1.585L7.144 -1.494C7.144 -1.443 7.144 -1.32 7.144 -1.126C7.144 -0.933 7.118 -0.734 7.067 -0.528C7.018 -0.324 6.929 -0.142 6.798 0.018C6.666 0.18 6.477 0.262 6.229 0.262C6.005 0.262 5.807 0.197 5.632 0.066C5.457 -0.066 5.37 -0.224 5.37 -0.412C5.37 -0.435 5.379 -0.528 5.399 -0.689C5.418 -0.851 5.442 -1.035 5.472 -1.239C5.503 -1.444 5.528 -1.65 5.548 -1.854C5.567 -2.06 5.577 -2.226 5.577 -2.35C5.577 -2.561 5.557 -2.772 5.519 -2.984L5.519 -3.228C5.519 -3.861 5.395 -4.457 5.147 -5.016C4.96 -5.164 4.667 -5.264 4.269 -5.315C4.197 -5.29 4.103 -5.253 3.989 -5.202C3.877 -5.153 3.765 -5.051 3.654 -4.896C3.542 -4.74 3.443 -4.519 3.355 -4.233C3.269 -3.946 3.208 -3.561 3.169 -3.078L3.115 -2.313C3.189 -1.939 3.228 -1.616 3.228 -1.344C3.228 -1.018 3.174 -0.76 3.067 -0.568C2.963 -0.376 2.729 -0.281 2.368 -0.281C2.18 -0.281 2.027 -0.302 1.909 -0.346C1.792 -0.39 1.699 -0.489 1.632 -0.645C1.564 -0.8 1.516 -1.029 1.49 -1.333C1.465 -1.637 1.454 -2.044 1.454 -2.554C1.454 -2.963 1.477 -3.364 1.526 -3.756C1.577 -4.149 1.652 -4.657 1.752 -5.279C1.716 -5.49 1.663 -5.685 1.596 -5.865C1.527 -6.044 1.494 -6.184 1.494 -6.284C1.494 -6.495 1.586 -6.681 1.77 -6.841C1.957 -7.003 2.175 -7.085 2.423 -7.085C2.609 -7.085 2.778 -7.029 2.929 -6.918L3.246 -6.51C3.393 -6.634 3.524 -6.729 3.636 -6.798C3.747 -6.865 3.847 -6.918 3.934 -6.954C4.022 -6.993 4.109 -7.014 4.197 -7.02C4.284 -7.027 4.383 -7.031 4.495 -7.031C4.656 -7.031 4.781 -7.031 4.874 -7.031C4.969 -7.031 5.065 -7.011 5.166 -6.972C5.265 -6.936 5.379 -6.878 5.508 -6.798C5.639 -6.717 5.823 -6.595 6.062 -6.433C6.209 -6.333 6.408 -6.011 6.656 -5.464L6.768 -5.595C6.868 -5.683 7.003 -5.769 7.176 -5.854C7.351 -5.942 7.541 -6.019 7.745 -6.087C7.951 -6.157 8.164 -6.213 8.382 -6.255C8.601 -6.299 8.796 -6.32 8.969 -6.32C9.379 -6.32 9.734 -6.28 10.032 -6.2C10.331 -6.12 10.586 -6.002 10.797 -5.847C11.009 -5.691 11.195 -5.492 11.355 -5.249C11.517 -5.006 11.673 -4.729 11.821 -4.419L11.821 -4.288C11.821 -4.187 11.833 -4.007 11.858 -3.745C11.884 -3.484 11.909 -3.224 11.934 -2.962C11.958 -2.701 11.982 -2.475 12.007 -2.284C12.033 -2.092 12.047 -2.008 12.047 -2.033C12.047 -2.02 12.049 -1.98 12.054 -1.913C12.062 -1.844 12.067 -1.763 12.073 -1.668C12.08 -1.576 12.085 -1.483 12.091 -1.388C12.098 -1.295 12.102 -1.224 12.102 -1.173ZM12.102 -1.064"/></g></g></g><g fill="rgb(7.839966%, 12.159729%, 20.779419%)" fill-opacity="1"><g transform="translate(744.178181, 621.598826)"><g><path d="M5.537 -5.799L4.532 -5.705C4.481 -5.705 4.424 -5.698 4.364 -5.687C4.3 -5.674 4.229 -5.662 4.149 -5.65C4.069 -5.637 3.979 -5.626 3.88 -5.614L4.029 -3.916C4.041 -3.753 4.055 -3.554 4.073 -3.319C4.092 -3.083 4.127 -2.803 4.178 -2.481C4.166 -2.381 4.157 -2.281 4.149 -2.182C4.142 -2.082 4.138 -1.971 4.138 -1.847C4.138 -1.659 4.144 -1.454 4.157 -1.231C4.171 -1.007 4.19 -0.765 4.215 -0.503C3.991 -0.131 3.674 0.055 3.264 0.055C2.89 0.055 2.628 -0.125 2.481 -0.485C2.481 -0.584 2.483 -0.705 2.488 -0.849C2.495 -0.992 2.499 -1.149 2.499 -1.322C2.499 -1.497 2.495 -1.687 2.488 -1.891C2.483 -2.096 2.481 -2.324 2.481 -2.572L2.481 -2.667C2.481 -2.865 2.471 -3.014 2.452 -3.115C2.432 -3.214 2.41 -3.341 2.386 -3.497C2.361 -3.652 2.33 -3.872 2.291 -4.157C2.255 -4.442 2.219 -4.879 2.182 -5.464L1.494 -5.333C1.454 -5.333 1.419 -5.335 1.388 -5.34C1.359 -5.348 1.331 -5.351 1.304 -5.351C1.243 -5.351 1.188 -5.348 1.137 -5.34C1.087 -5.335 1.044 -5.333 1.005 -5.333C0.956 -5.32 0.914 -5.315 0.878 -5.315C0.479 -5.414 0.281 -5.699 0.281 -6.171C0.281 -6.358 0.299 -6.501 0.335 -6.601C0.372 -6.7 0.452 -6.774 0.576 -6.823C0.701 -6.874 0.886 -6.915 1.129 -6.947C1.372 -6.978 1.691 -7.024 2.087 -7.085C2.075 -7.297 2.053 -7.542 2.022 -7.821C1.993 -8.103 1.978 -8.405 1.978 -8.728C1.978 -9.224 2.201 -9.876 2.648 -10.685C2.772 -10.747 2.892 -10.809 3.009 -10.87C3.127 -10.933 3.271 -10.992 3.439 -11.049C3.608 -11.104 3.808 -11.16 4.036 -11.216C4.267 -11.272 4.555 -11.326 4.903 -11.377L4.98 -11.377C5.191 -11.377 5.355 -11.295 5.472 -11.133C5.59 -10.97 5.65 -10.783 5.65 -10.572C5.65 -10.336 5.596 -10.158 5.49 -10.04C5.385 -9.923 5.251 -9.83 5.089 -9.763C4.929 -9.695 4.751 -9.639 4.557 -9.595C4.365 -9.552 4.189 -9.492 4.029 -9.417C3.878 -9.368 3.787 -9.275 3.756 -9.136C3.727 -9 3.706 -8.864 3.694 -8.728C3.694 -8.701 3.699 -8.598 3.712 -8.419C3.724 -8.238 3.73 -8.081 3.73 -7.945C3.73 -7.906 3.727 -7.87 3.719 -7.839C3.714 -7.81 3.712 -7.783 3.712 -7.759C3.712 -7.708 3.714 -7.641 3.719 -7.559C3.727 -7.479 3.736 -7.37 3.749 -7.235L4.605 -7.348C4.692 -7.36 4.776 -7.366 4.856 -7.366C4.938 -7.366 5.01 -7.366 5.071 -7.366C5.381 -7.366 5.608 -7.309 5.752 -7.198C5.895 -7.086 5.967 -6.893 5.967 -6.619C5.967 -6.184 5.823 -5.911 5.537 -5.799ZM5.537 -5.799"/></g></g></g><g fill="rgb(7.839966%, 12.159729%, 20.779419%)" fill-opacity="1"><g transform="translate(772.329518, 621.598826)"><g><path d="M6.044 -0.466C5.881 -0.354 5.618 -0.245 5.257 -0.138C4.897 -0.034 4.524 0.056 4.138 0.131L3.377 -0.018C3.262 -0.055 3.078 -0.14 2.823 -0.277C2.57 -0.415 2.313 -0.624 2.051 -0.903C1.79 -1.182 1.561 -1.543 1.362 -1.985C1.163 -2.427 1.064 -2.965 1.064 -3.599C1.064 -3.822 1.116 -4.085 1.22 -4.39C1.327 -4.696 1.486 -4.982 1.698 -5.249C1.909 -5.516 2.172 -5.743 2.488 -5.931C2.806 -6.117 3.177 -6.211 3.599 -6.211C4.444 -6.211 5.209 -5.936 5.894 -5.388C6.489 -4.569 6.787 -3.662 6.787 -2.667C6.787 -1.933 6.539 -1.199 6.044 -0.466ZM5.129 -3.115C5.065 -3.6 4.912 -3.983 4.67 -4.262C4.427 -4.541 4.12 -4.681 3.749 -4.681C3.501 -4.681 3.268 -4.559 3.049 -4.317C2.831 -4.074 2.721 -3.723 2.721 -3.264C2.721 -3.076 2.745 -2.88 2.794 -2.674C2.845 -2.47 2.926 -2.284 3.038 -2.117C3.149 -1.949 3.293 -1.811 3.468 -1.705C3.643 -1.6 3.854 -1.548 4.102 -1.548C4.5 -1.548 4.773 -1.669 4.922 -1.913C5.072 -2.155 5.147 -2.456 5.147 -2.816C5.147 -2.864 5.144 -2.911 5.136 -2.954C5.131 -2.998 5.129 -3.051 5.129 -3.115ZM5.129 -3.115"/></g></g></g><g fill="rgb(7.839966%, 12.159729%, 20.779419%)" fill-opacity="1"><g transform="translate(806.079131, 621.598826)"><g><path d="M6.32 -6.339C6.519 -6.215 6.619 -5.979 6.619 -5.632C6.619 -5.37 6.551 -5.145 6.415 -4.958C6.279 -4.773 6.092 -4.681 5.854 -4.681C5.706 -4.681 5.554 -4.721 5.399 -4.801C5.243 -4.881 5.078 -4.922 4.903 -4.922C4.755 -4.922 4.609 -4.893 4.466 -4.838C4.322 -4.781 4.157 -4.661 3.971 -4.477L3.413 -3.916C3.413 -3.829 3.415 -3.741 3.421 -3.654C3.428 -3.566 3.432 -3.473 3.432 -3.377C3.432 -3.226 3.428 -3.069 3.421 -2.907C3.415 -2.747 3.407 -2.573 3.395 -2.386L3.563 -0.689C3.524 -0.117 3.231 0.168 2.685 0.168C2.398 0.168 2.187 0.077 2.051 -0.102C1.914 -0.281 1.821 -0.533 1.77 -0.856C1.721 -1.181 1.699 -1.561 1.705 -1.996C1.712 -2.431 1.709 -2.909 1.698 -3.432C1.673 -4.213 1.654 -4.605 1.639 -4.605L1.639 -4.586C1.59 -4.773 1.554 -4.938 1.53 -5.082C1.505 -5.225 1.494 -5.352 1.494 -5.464C1.494 -5.687 1.574 -5.871 1.734 -6.014C1.896 -6.157 2.133 -6.229 2.444 -6.229C2.641 -6.229 2.876 -6.074 3.151 -5.763C3.437 -5.986 3.658 -6.154 3.814 -6.266C3.969 -6.377 4.099 -6.457 4.204 -6.506C4.31 -6.557 4.413 -6.585 4.514 -6.59C4.613 -6.597 4.743 -6.601 4.903 -6.601C5.042 -6.613 5.169 -6.606 5.286 -6.583C5.404 -6.558 5.532 -6.534 5.668 -6.51ZM6.32 -6.339"/></g></g></g><g fill="rgb(7.839966%, 12.159729%, 20.779419%)" fill-opacity="1"><g transform="translate(836.629697, 621.598826)"><g><path d="M5.872 -7.031C6.011 -6.919 6.08 -6.714 6.08 -6.415C6.08 -5.869 5.874 -5.595 5.464 -5.595L5.388 -5.595C5.203 -5.583 4.985 -5.567 4.736 -5.548C4.488 -5.528 4.208 -5.501 3.898 -5.464C3.873 -5.265 3.848 -5 3.821 -4.67C3.797 -4.342 3.785 -3.947 3.785 -3.486C3.785 -3.45 3.787 -3.412 3.792 -3.373C3.8 -3.337 3.803 -3.294 3.803 -3.246L3.803 -2.386C3.803 -2.187 3.837 -2.027 3.905 -1.909C3.975 -1.792 4.06 -1.709 4.16 -1.661L4.681 -1.494C5.091 -1.355 5.297 -1.106 5.297 -0.747C5.297 -0.536 5.213 -0.348 5.045 -0.186C4.878 -0.026 4.663 0.055 4.401 0.055C4.325 0.055 4.198 0.034 4.018 -0.007C3.838 -0.051 3.651 -0.11 3.457 -0.186C3.265 -0.26 3.086 -0.354 2.918 -0.466C2.75 -0.577 2.635 -0.701 2.572 -0.838C2.435 -1.124 2.324 -1.425 2.237 -1.741C2.149 -2.059 2.106 -2.392 2.106 -2.739C2.106 -3.126 2.111 -3.399 2.124 -3.559C2.138 -3.721 2.151 -3.865 2.164 -3.989C2.176 -4.115 2.188 -4.264 2.2 -4.437C2.212 -4.612 2.219 -4.898 2.219 -5.297C1.983 -5.272 1.634 -5.197 1.173 -5.071C0.901 -5.071 0.668 -5.142 0.474 -5.286C0.281 -5.429 0.186 -5.618 0.186 -5.854C0.186 -6.029 0.238 -6.19 0.342 -6.339C0.449 -6.489 0.67 -6.62 1.005 -6.732C1.117 -6.768 1.219 -6.792 1.311 -6.805C1.406 -6.819 1.499 -6.832 1.592 -6.845C1.687 -6.857 1.79 -6.865 1.902 -6.87C2.013 -6.878 2.15 -6.893 2.313 -6.918C2.325 -7.228 2.346 -7.579 2.375 -7.971C2.406 -8.364 2.463 -8.728 2.543 -9.063C2.625 -9.399 2.744 -9.68 2.9 -9.909C3.055 -10.139 3.262 -10.255 3.523 -10.255C3.972 -10.255 4.246 -10.051 4.346 -9.643C4.346 -9.628 4.33 -9.543 4.299 -9.388C4.267 -9.232 4.231 -9.061 4.193 -8.874C4.157 -8.689 4.122 -8.51 4.091 -8.335C4.062 -8.162 4.047 -8.051 4.047 -8L3.989 -7.085C4.076 -7.097 4.157 -7.105 4.233 -7.111C4.308 -7.118 4.39 -7.122 4.477 -7.122L4.645 -7.122C4.729 -7.122 4.81 -7.125 4.885 -7.133C4.96 -7.14 5.028 -7.144 5.089 -7.144C5.462 -7.144 5.724 -7.105 5.872 -7.031ZM5.872 -7.031"/></g></g></g></svg>